<svg xmlns="http://www.w3.org/2000/svg" viewBox="0 0 16 16">
  <g>
    <path d="M12.52,8.41h2V6.59h-2a7.18,7.18,0,0,0-.61-1.78l1.4-1.4L11.59,1.69l-1.4,1.4a7.17,7.17,0,0,0-1.78-.61V.5H6.59v2a7.17,7.17,0,0,0-1.78.61l-1.4-1.4L1.69,3.41l1.4,1.4a7.19,7.19,0,0,0-.61,1.78H.5V8.41h2a7.19,7.19,0,0,0,.61,1.78l-1.4,1.4,1.72,1.72,1.4-1.4a7.17,7.17,0,0,0,1.78.61v2H8.41v-2a7.18,7.18,0,0,0,1.78-.61l1.4,1.4,1.72-1.72-1.4-1.4A7.19,7.19,0,0,0,12.52,8.41Z" />
    <circle cx="7.5" cy="7.5" r="2.74" />
  </g>
</svg>