<svg class="oui-icon" data-name="settings" xmlns="http://www.w3.org/2000/svg" viewBox="0 0 24 24">
  <g>
    <path d="M20.25,13.5H23.5v-3H20.25a11.8,11.8,0,0,0-1-2.92l2.3-2.3L18.72,2.45l-2.3,2.3a11.78,11.78,0,0,0-2.92-1V.5h-3V3.75a11.78,11.78,0,0,0-2.92,1l-2.3-2.3L2.45,5.28l2.3,2.3a11.82,11.82,0,0,0-1,2.92H.5v3H3.75a11.81,11.81,0,0,0,1,2.92l-2.3,2.3,2.83,2.83,2.3-2.3a11.78,11.78,0,0,0,2.92,1V23.5h3V20.25a11.79,11.79,0,0,0,2.92-1l2.3,2.3,2.83-2.83-2.3-2.3A11.81,11.81,0,0,0,20.25,13.5Z" />
    <circle cx="12" cy="12" r="4.5" />
  </g>
</svg>