<svg class="oui-icon" data-name="tablet" xmlns="http://www.w3.org/2000/svg" viewBox="0 0 24 24">
  <rect x="3.5" y="0.5" width="17" height="23" rx="2" ry="2" />
  <rect x="5.5" y="3.5" width="13" height="16" />
  <path d="M12,1.5a.5.5,0,1,0,.5.5.5.5,0,0,0-.5-.5Z" />
  <rect x="8.5" y="6.5" width="1" height="1" />
  <rect x="11.5" y="6.5" width="1" height="1" />
  <rect x="14.5" y="6.5" width="1" height="1" />
  <rect x="8.5" y="9.5" width="1" height="1" />
  <rect x="11.5" y="9.5" width="1" height="1" />
  <rect x="14.5" y="9.5" width="1" height="1" />
  <rect x="8.5" y="12.5" width="1" height="1" />
  <rect x="11.5" y="12.5" width="1" height="1" />
  <path d="M12.5,21.5a.5.5,0,0,1-.5.5h0a.5.5,0,0,1-.5-.5h0A.5.5,0,0,1,12,21h0a.5.5,0,0,1,.5.5Z" /></svg>