<svg class="oui-icon" data-name="userlist" xmlns="http://www.w3.org/2000/svg" xmlns:xlink="http://www.w3.org/1999/xlink" viewBox="0 0 16 16">
  <line x1="10" y1="3.5" x2="15.5" y2="3.5" />
  <line x1="10" y1="5.5" x2="15.5" y2="5.5" />
  <line x1="10" y1="7.5" x2="15.5" y2="7.5" />
  <line x1="11.5" y1="9.5" x2="15.5" y2="9.5" />
  <path d="M5.2,12.4h4.7c0-0.6-0.2-1.1-0.4-1.7c-0.3-0.6-1.6-1-3.2-1.6V7.9c0.4-0.3,0.6-0.7,0.6-1.2c0.2,0,0.4-0.8,0-1
	c0-0.1,0.5-1.1,0.4-1.8c-0.2-1-3.1-1-3.2-0.2c-1.2,0-0.4,1.9-0.4,2c-0.4,0.2-0.2,1,0,1c0,0.5,0.2,0.9,0.6,1.2v1.2
	c-1.6,0.6-3,1-3.2,1.6c-0.3,0.5-0.5,1.1-0.5,1.7H5.2z" />
</svg>