<svg version="1.1" id="Layer_1" xmlns="http://www.w3.org/2000/svg" xmlns:xlink="http://www.w3.org/1999/xlink" x="0px" y="0px"
	 viewBox="0 0 24 24" style="enable-background:new 0 0 24 24;" xml:space="preserve">
<path d="M22,21H2c-1.1,0-2-0.9-2-2.1V4.1C0,2.9,0.9,2,2,2h20c1.1,0,2,0.9,2,2.1v14.8C24,20.1,23.1,21,22,21z M2,3C1.4,3,1,3.5,1,4.1
	v14.8C1,19.5,1.4,20,2,20h20c0.6,0,1-0.5,1-1.1V4.1C23,3.5,22.6,3,22,3H2z M19,23H5c-0.3,0-0.5-0.2-0.5-0.5S4.7,22,5,22h14
	c0.3,0,0.5,0.2,0.5,0.5S19.3,23,19,23z"/>
<path d="M12,23c-0.3,0-0.5-0.2-0.5-0.5v-2c0-0.3,0.2-0.5,0.5-0.5s0.5,0.2,0.5,0.5v2C12.5,22.8,12.3,23,12,23z"/>
<path class="st0" d="M12,18c0.3,0,0.5,0.2,0.5,0.5S12.3,19,12,19s-0.5-0.2-0.5-0.5S11.7,18,12,18z"/>
<path d="M0.5,16h23v1h-23V16z"/>
</svg>
