<svg xmlns="http://www.w3.org/2000/svg" viewBox="0 0 24 24">
<path d="M22,6c0-2.5-4.4-4.5-10-4.5S2,3.5,2,6v0.5V19c0,2.5,4.4,4.5,10,4.5s10-2,10-4.5V6.5 M12,2.5c5.3,0,9,1.8,9,3.5
	s-3.7,3.5-9,3.5C6.6,9.5,3,7.7,3,6S6.6,2.5,12,2.5z M12,22.5c-5.3,0-9-1.8-9-3.5v-2.5C4.6,18,8,19,12,19s7.4-1,9-2.5V19
	C21,20.7,17.3,22.5,12,22.5z M12,18c-5.3,0-9-1.8-9-3.5V12c1.6,1.5,5,2.5,9,2.5s7.4-1,9-2.5v2.5C21,16.2,17.3,18,12,18z M12,13.5
	c-5.3,0-9-1.8-9-3.5V8c1.6,1.5,5,2.5,9,2.5s7.4-1,9-2.5v2C21,11.7,17.3,13.5,12,13.5z"/>
</svg>