<?xml version="1.0" encoding="utf-8"?>
<!-- Generator: Adobe Illustrator 21.1.0, SVG Export Plug-In . SVG Version: 6.00 Build 0)  -->
<svg version="1.1" baseProfile="tiny" id="Layer_1" xmlns="http://www.w3.org/2000/svg" xmlns:xlink="http://www.w3.org/1999/xlink"
	 x="0px" y="0px" viewBox="0 0 24 24" xml:space="preserve">
<path d="M20.6,7.4l-3.2-1.1l-0.9-4.9c0-0.2-0.2-0.4-0.4-0.4c-0.2,0-0.4,0.1-0.5,0.3c-0.5,1.4-1.4,1.9-2.7,2.3
	c-0.6,0.1-1.2,0.2-1.9,0.3C9.9,4.1,8.9,4.2,8,4.4C6.9,4.7,5.5,5.2,4.5,6.6l-0.6-1C3.8,5.3,3.5,5.2,3.2,5.4C3,5.5,2.9,5.8,3.1,6.1
	l10.2,17.1c0.1,0.2,0.3,0.2,0.4,0.2c0.1,0,0.2,0,0.3-0.1c0.2-0.1,0.3-0.4,0.2-0.7l-5-8.3c0.9-1.5,2.2-2,3.2-2.2
	c0.8-0.2,1.6-0.3,2.4-0.4c0.9-0.1,1.8-0.3,2.6-0.5c1.6-0.4,2.9-1.1,3.5-3.1C21,7.8,20.8,7.5,20.6,7.4z M17.1,10.2
	c-0.8,0.2-1.6,0.3-2.5,0.5c-0.8,0.1-1.7,0.2-2.5,0.4c-1.5,0.3-2.7,1.1-3.5,2.2L5.1,7.5c0,0,0,0,0,0c0.8-1.3,2.1-1.9,3.1-2.1
	C9.1,5.2,10,5,10.9,4.9c0.7-0.1,1.4-0.2,2-0.3c1-0.3,2-0.7,2.7-1.6l0.7,3.8c0,0.2,0.2,0.3,0.3,0.4l3,1C19.2,9.4,18.3,9.9,17.1,10.2z
	"/>
</svg>
