<?xml version="1.0" encoding="utf-8"?>
<!-- Generator: Adobe Illustrator 25.1.0, SVG Export Plug-In . SVG Version: 6.00 Build 0)  -->
<svg version="1.1" id="Layer_1" xmlns="http://www.w3.org/2000/svg" xmlns:xlink="http://www.w3.org/1999/xlink" x="0px" y="0px"
	 viewBox="0 0 24 24" style="enable-background:new 0 0 24 24;" xml:space="preserve">
<style type="text/css">
	.st0{fill:none;stroke:#000000;stroke-linecap:round;stroke-miterlimit:10;}
	.st1{fill:none;stroke:#000000;}
	.st2{fill:#FFFFFF;stroke:#000000;}
</style>
<path class="st0" d="M1.7,16.9h20.9"/>
<path class="st1" d="M1,11.7C1,11.7,1,11.7,1,11.7L1,11.7l21.9-7.4c0,0,0.1,0,0.2,0c0.1,0,0.1,0,0.2,0.1c0,0,0.1,0,0.1,0v7.3
	c0,0-0.1,0.1-0.2,0.1H1.2C1.1,11.7,1.1,11.7,1,11.7z M23.4,11.6C23.4,11.6,23.4,11.6,23.4,11.6L23.4,11.6z"/>
<path class="st2" d="M8.4,16.9c0,1.2-1,2.2-2.2,2.2s-2.2-1-2.2-2.2s1-2.2,2.2-2.2S8.4,15.7,8.4,16.9z"/>
</svg>
