<svg xmlns="http://www.w3.org/2000/svg" viewBox="0 0 24 24">
    <path d="M10,12c-5.3,0-9-1.8-9-3.5v-2C2.6,8,6,9,10,9s7.4-1,9-2.5V9c0,0.3,0.2,0.5,0.5,0.5S20,9.3,20,9V4.5C20,2,15.6,0,10,0S0,2,0,4.5v13c0,2.4,3.8,4.3,9,4.5c0,0,0,0,0,0c0.3,0,0.5-0.2,0.5-0.5C9.5,21.2,9.3,21,9,21c-4.4-0.2-8-1.8-8-3.5V15c1.4,1.3,4.1,2.2,7.5,2.4c0,0,0,0,0,0c0.3,0,0.5-0.2,0.5-0.5c0-0.3-0.2-0.5-0.5-0.5C4,16.1,1,14.4,1,13v-2.5C2.6,12,6,13,10,13c0.3,0,0.5-0.2,0.5-0.5S10.3,12,10,12z M10,1c5.3,0,9,1.8,9,3.5S15.3,8,10,8S1,6.2,1,4.5S4.7,1,10,1z"/>
    <path d="M22,15v-0.5c0-2-1.5-3.5-3.5-3.5S15,12.5,15,14.5V15h-2v9h11v-9H22z M16,14.5c0-1.4,1.1-2.5,2.5-2.5s2.5,1.1,2.5,2.5V15h-5V14.5z M23,23h-9v-7h9V23z"/>
    <path d="M18.5,17.5c-0.6,0-1,0.4-1,1c0,0.4,0.2,0.7,0.5,0.9V21c0,0.3,0.2,0.5,0.5,0.5S19,21.3,19,21v-1.6c0.3-0.2,0.5-0.5,0.5-0.9C19.5,17.9,19.1,17.5,18.5,17.5z"/>
</svg>