<svg xmlns="http://www.w3.org/2000/svg" viewBox="0 0 24 24">
    <path class="st0" d="M10,8.5c5.2,0,9.5-1.8,9.5-4s-4.3-4-9.5-4c-5.2,0-9.5,1.8-9.5,4S4.8,8.5,10,8.5z"/>
    <path class="st0" d="M10,12.5c-5.2,0-9.5-1.8-9.5-4"/>
    <path class="st0" d="M8.5,16.9c-4.5-0.3-8-2-8-3.9"/>
    <path class="st0" d="M9,21.5c-4.8-0.2-8.5-1.9-8.5-4v-13"/>
    <path class="st0" d="M19.5,4.5V9"/>
    <path class="st0" d="M23.5,15.5h-10v8h10V15.5z"/>
    <path class="st0" d="M18.5,21v-2"/>
    <path class="st0" d="M15.5,15.5v-1c0-1.7,1.3-3,3-3s3,1.3,3,3v1"/>
    <path class="st0" d="M18.5,19c0.3,0,0.5-0.2,0.5-0.5S18.8,18,18.5,18S18,18.2,18,18.5S18.2,19,18.5,19z"/>
</svg>
