<svg xmlns="http://www.w3.org/2000/svg" viewBox="0 0 24 24">
  <g>
    <path d="M10.16,14.29s-.2,2.36-.77,2.93S5.15,18.54,5,18.91s-.24,2,0,2.14,2.15.35,7.11.35,6.91-.16,7.13-.37a4.23,4.23,0,0,0,0-2.14c-.25-.35-4-1.15-4.56-1.69s-.59-2.93-.59-2.93" />
    <path d="M16.74,6.9a4.76,4.76,0,0,0-4.57-5A4.84,4.84,0,0,0,7.6,7a13.3,13.3,0,0,0,.5,4.34c1.14,2.58,2.71,3.8,4.07,3.8s2.89-1.27,4.07-3.81A13.44,13.44,0,0,0,16.74,6.9Z" />
    <g>
      <path d="M4.67,12.91s-.16,1.78-.61,2.21S.69,16.12.6,16.4.41,17.94.62,18c0,0,2.44.31,3,.26" />
      <path d="M6.27,3.55A3.73,3.73,0,0,0,2.64,7.39,9.61,9.61,0,0,0,3,10.67c.91,2,2.15,2.87,3.23,2.87" />
    </g>
    <g>
      <path d="M19.33,12.91s.16,1.78.61,2.21,3.37,1,3.45,1.28.19,1.54,0,1.62a15.16,15.16,0,0,1-2.27.26" />
      <path d="M17.73,3.55a3.73,3.73,0,0,1,3.63,3.84,9.61,9.61,0,0,1-.4,3.28c-.91,2-2.15,2.87-3.23,2.87" />
    </g>
  </g>
</svg>