<svg xmlns="http://www.w3.org/2000/svg" viewBox="0 0 16 16">
  <g>
    <path d="M6.88,9.88a4.81,4.81,0,0,1-.47,1.86c-.35.36-2.58.84-2.65,1.08s-.15,1.3,0,1.36a22.4,22.4,0,0,0,4.33.22c3,0,4.21-.1,4.34-.24a2.81,2.81,0,0,0,0-1.36c-.15-.22-2.44-.73-2.77-1.08s-.36-1.86-.36-1.86" />
    <path d="M10.89,5.17A3,3,0,0,0,8.11,2,3,3,0,0,0,5.32,5.23,8.83,8.83,0,0,0,5.63,8c.7,1.64,1.65,2.42,2.48,2.42S9.87,9.6,10.58,8A8.92,8.92,0,0,0,10.89,5.17Z" />
    <g>
      <path d="M3.54,9a3.49,3.49,0,0,1-.37,1.41c-.28.27-2.05.64-2.1.82s-.12,1,0,1a17.88,17.88,0,0,0,1.82.17" />
      <path d="M4.51,3A2.33,2.33,0,0,0,2.3,5.48a6.37,6.37,0,0,0,.24,2.09c.55,1.24,1.31,1.83,2,1.83" />
    </g>
    <g>
      <path d="M12.46,9a3.49,3.49,0,0,0,.37,1.41c.28.27,2.05.64,2.1.82s.12,1,0,1a8.84,8.84,0,0,1-1.38.17" />
      <path d="M11.49,3A2.33,2.33,0,0,1,13.7,5.48a6.37,6.37,0,0,1-.24,2.09c-.55,1.24-1.31,1.83-2,1.83" />
    </g>
  </g>
</svg>