<?xml version="1.0" encoding="UTF-8"?>
<svg width="24px" height="24px" viewBox="0 0 24 24" version="1.1" xmlns="http://www.w3.org/2000/svg" xmlns:xlink="http://www.w3.org/1999/xlink">
    <!-- Generator: Sketch 46.2 (44496) - http://www.bohemiancoding.com/sketch -->
    <title>accounts</title>
    <desc>Created with Sketch.</desc>
    <defs></defs>
    <g id="Page-1" stroke="none" stroke-width="1" fill="none" fill-rule="evenodd" stroke-linejoin="round">
        <g id="accounts" stroke="#000000">
            <path d="M14.5,3 C14.5,4.381 13.381,5.5 12,5.5 C10.619,5.5 9.5,4.381 9.5,3 C9.5,1.619 10.619,0.5 12,0.5 C13.381,0.5 14.5,1.619 14.5,3 Z" id="Stroke-347"></path>
            <path d="M20.5,4 C20.5,4.828 19.828,5.5 19,5.5 C18.172,5.5 17.5,4.828 17.5,4 C17.5,3.172 18.172,2.5 19,2.5 C19.828,2.5 20.5,3.172 20.5,4 Z" id="Stroke-348"></path>
            <path d="M6.5,4 C6.5,4.828 5.828,5.5 5,5.5 C4.172,5.5 3.5,4.828 3.5,4 C3.5,3.172 4.172,2.5 5,2.5 C5.828,2.5 6.5,3.172 6.5,4 Z" id="Stroke-349"></path>
            <path d="M17,17.5 C20.848,17.8408732 23.5,18.5625986 23.5,19.3958443 C23.5,20.5573382 18.352,21.5 12,21.5 C5.649,21.5 0.5,20.5573382 0.5,19.3958443 C0.5,18.5647028 3.135,17.8461336 6.958,17.5042083" id="Stroke-350" stroke-linecap="round"></path>
            <path d="M14.5,16.5 L9.5,16.5 L9.5,10 C9.5,8.619 10.619,7.5 12,7.5 C13.381,7.5 14.5,8.619 14.5,10 L14.5,16.5 Z" id="Stroke-351"></path>
            <path d="M20.5,14.5 L17.5,14.5 L17.5,9 C17.5,8.172 18.172,7.5 19,7.5 C19.828,7.5 20.5,8.172 20.5,9 L20.5,14.5 Z" id="Stroke-352"></path>
            <path d="M6.5,14.5 L3.5,14.5 L3.5,9 C3.5,8.172 4.172,7.5 5,7.5 C5.828,7.5 6.5,8.172 6.5,9 L6.5,14.5 Z" id="Stroke-353"></path>
        </g>
    </g>
</svg>