<?xml version="1.0" encoding="UTF-8"?>
<svg width="24px" height="24px" viewBox="0 0 24 24" version="1.1" xmlns="http://www.w3.org/2000/svg" xmlns:xlink="http://www.w3.org/1999/xlink">
    <!-- Generator: Sketch 46.2 (44496) - http://www.bohemiancoding.com/sketch -->
    <title>audiences</title>
    <desc>Created with Sketch.</desc>
    <defs></defs>
    <g id="Page-1" stroke="none" stroke-width="1" fill="none" fill-rule="evenodd" stroke-linecap="round" stroke-linejoin="round">
        <g id="audiences" stroke="#000000">
            <path d="M10.261113,14.8640205 C10.261113,14.8640205 10.0722642,17.1225375 9.52009702,17.6689529 C8.96792987,18.2144097 5.45265744,18.9381704 5.35008473,19.2928611 C5.24847063,19.6485105 5.12001508,21.2474945 5.37596756,21.3491086 C5.63287866,21.4507227 7.44084261,21.6798337 12.1898635,21.6798337 C16.9379258,21.6798337 18.8149106,21.5264539 19.0210147,21.3232257 C19.2261601,21.1199976 19.1935669,19.4711651 19.0459389,19.2679369 C18.8053244,18.9362532 15.2009,18.1674371 14.6784502,17.6430701 C14.156959,17.118703 14.1138209,14.8343032 14.1138209,14.8343032" id="Stroke-56"></path>
            <path d="M16.5699102,7.77873823 C16.5699102,5.08021303 14.6018561,3 12.1899594,3 C9.77614536,3 7.80809128,5.16361328 7.80809128,7.8630971 C7.80809128,9.91071693 8.01898846,11.41288 8.28740304,12.0196887 C9.38310972,14.4958132 10.8881486,15.6634166 12.1899594,15.6634166 C13.4898529,15.6634166 14.96134,14.4459648 16.0905985,12.0091438 C16.3685993,11.4090455 16.5699102,9.85415814 16.5699102,7.77873823 Z" id="Stroke-57"></path>
            <path d="M4.99807817,13.5393945 C4.99807817,13.5393945 4.84757428,15.2476616 4.40948333,15.6598697 C3.97139239,16.0730365 1.18083933,16.6194519 1.09935633,16.8878665 C1.01787333,17.156281 0.915300617,18.3660639 1.1185288,18.4427538 C1.1185288,18.4427538 3.4623633,18.7399271 3.98960623,18.6929545" id="Stroke-58"></path>
            <path d="M6.52871234,4.56965014 C4.61338255,4.56965014 3.05082622,6.20602049 3.05082622,8.24597133 C3.05082622,9.79510693 3.21762672,10.9301172 3.43139976,11.3892978 C4.30087129,13.2614896 5.49627481,14.1443818 6.52871234,14.1443818" id="Stroke-59"></path>
            <path d="M19.0497734,13.5393945 C19.0497734,13.5393945 19.2002773,15.2476616 19.6383682,15.6598697 C20.0764592,16.0730365 22.8670122,16.6194519 22.9484952,16.8878665 C23.0299782,17.156281 23.1325509,18.3660639 22.9293228,18.4427538 C22.9293228,18.4427538 21.2795317,18.7399271 20.7522888,18.6929545" id="Stroke-60"></path>
            <path d="M17.5191392,4.56965014 C19.434469,4.56965014 20.9970253,6.20602049 20.9970253,8.24597133 C20.9970253,9.79510693 20.8302248,10.9301172 20.6164518,11.3892978 C19.7469803,13.2614896 18.5515768,14.1443818 17.5191392,14.1443818" id="Stroke-61"></path>
        </g>
    </g>
</svg>