<?xml version="1.0" encoding="UTF-8"?>
<svg width="24px" height="24px" viewBox="0 0 24 24" version="1.1" xmlns="http://www.w3.org/2000/svg" xmlns:xlink="http://www.w3.org/1999/xlink">
    <!-- Generator: Sketch 46.1 (44463) - http://www.bohemiancoding.com/sketch -->
    <title>ban</title>
    <desc>Created with Sketch.</desc>
    <defs></defs>
    <g id="Page-1" stroke="none" stroke-width="1" fill="none" fill-rule="evenodd" stroke-linejoin="round">
        <g id="ban" stroke="#000000">
            <path d="M22.5,11.5 C22.5,17.5767826 17.5758261,22.5 11.5,22.5 C5.42513043,22.5 0.5,17.5767826 0.5,11.5 C0.5,5.42417391 5.42513043,0.5 11.5,0.5 C17.5758261,0.5 22.5,5.42417391 22.5,11.5 Z" id="Stroke-166" stroke-linecap="round"></path>
            <path d="M11.5421677,4.5 C7.65322311,4.5 4.5,7.65230461 4.5,11.5412492 C4.5,13.009018 4.9491483,14.3702405 5.71793587,15.498163 L15.5,5.71701737 C14.371159,4.9491483 13.0099365,4.5 11.5421677,4.5 Z" id="Stroke-167"></path>
            <path d="M8,17.7827794 C9.12884102,18.5507767 10.4900635,19 11.9578323,19 C15.8458584,19 19,15.8480875 19,11.9575747 C19,10.4904794 18.5490147,9.12811091 17.7811456,8 L8,17.7827794 Z" id="Stroke-168"></path>
        </g>
    </g>
</svg>