<?xml version="1.0" encoding="UTF-8"?>
<svg width="24px" height="24px" viewBox="0 0 24 24" version="1.1" xmlns="http://www.w3.org/2000/svg" xmlns:xlink="http://www.w3.org/1999/xlink">
    <!-- Generator: Sketch 46.1 (44463) - http://www.bohemiancoding.com/sketch -->
    <title>bell</title>
    <desc>Created with Sketch.</desc>
    <defs></defs>
    <g id="Page-1" stroke="none" stroke-width="1" fill="none" fill-rule="evenodd" stroke-linecap="round" stroke-linejoin="round">
        <g id="bell" stroke="#000000">
            <path d="M19.6304348,13.6569565 L19.6304348,10.0336522 C19.6304348,6.53565217 17.6332174,5.00330435 14.5943478,3.73591304 C14.5943478,1.94817391 13.214087,0.5 11.4292174,0.5 C9.64052174,0.5 8.37026087,1.94817391 8.37026087,3.73591304 C5.32852174,5.00330435 3.36956522,6.53565217 3.36956522,10.0336522 L3.36956522,13.6569565 C3.36956522,15.086 1.92904348,18.673913 0.5,18.673913 L22.5,18.673913 C21.0690435,18.673913 19.6304348,15.086 19.6304348,13.6569565 Z" id="Stroke-208"></path>
            <path d="M14.5,19 C14.5,20.3799309 13.1565875,21.5 11.499568,21.5 C9.84168467,21.5 8.5,20.3799309 8.5,19" id="Stroke-209"></path>
        </g>
    </g>
</svg>