<?xml version="1.0" encoding="UTF-8"?>
<svg width="24px" height="24px" viewBox="0 0 24 24" version="1.1" xmlns="http://www.w3.org/2000/svg" xmlns:xlink="http://www.w3.org/1999/xlink">
    <!-- Generator: Sketch 46.1 (44463) - http://www.bohemiancoding.com/sketch -->
    <title>calendar</title>
    <desc>Created with Sketch.</desc>
    <defs></defs>
    <g id="Page-1" stroke="none" stroke-width="1" fill="none" fill-rule="evenodd" stroke-linejoin="round">
        <g id="calendar" stroke="#000000">
            <path d="M4,2.5 L1.5,2.5 L1.5,20.1003333 C1.5,20.873 2.13182609,21.5 2.9133913,21.5 L21.0866087,21.5 C21.8681739,21.5 22.5,20.873 22.5,20.1003333 L22.5,2.5 L20,2.5" id="Stroke-62" stroke-linecap="round"></path>
            <polygon id="Stroke-63" stroke-linecap="round" points="4.5 4 7.5 4 7.5 1 4.5 1"></polygon>
            <polygon id="Stroke-64" stroke-linecap="round" points="16.5 4 19.5 4 19.5 1 16.5 1"></polygon>
            <path d="M8,2.5 L16,2.5" id="Stroke-65" stroke-linecap="round"></path>
            <path d="M1.5,6.5 L21.5,6.5" id="Stroke-66" stroke-linecap="square"></path>
            <polyline id="Stroke-67" stroke-linecap="round" points="8.526 18.156 8.526 10.5 6.5 12.232"></polyline>
            <path d="M6,18.5 L11,18.5" id="Stroke-68" stroke-linecap="round"></path>
            <polyline id="Stroke-69" stroke-linecap="round" points="14.8506 18.348 17.7146 10.5 12.9996 10.5 12.9996 11"></polyline>
        </g>
    </g>
</svg>