<svg
    baseProfile="tiny"
    xmlns="http://www.w3.org/2000/svg"
    viewBox="0 0 24 24">
    <path
    d="m23.087399,18.333983a0.537597,0.537597 0 0 1 0.537597,0.537597l0,1.075195a0.537597,0.537597 0 0 1 -0.537597,0.537597l-21.862298,0a0.537597,0.537597 0 0 1 -0.537597,-0.537597l0,-16.127925a0.537597,0.537597 0 0 1 0.537597,-0.537597l1.075195,0a0.537597,0.537597 0 0 1 0.537597,0.537597l0,14.515132l20.249505,0zm-15.948725,-2.687987l0,-3.225585a0.537597,0.537597 0 0 0 -0.537597,-0.537597l-1.075195,0a0.537597,0.537597 0 0 0 -0.537597,0.537597l0,3.225585a0.537597,0.537597 0 0 0 0.537597,0.537597l1.075195,0a0.537597,0.537597 0 0 0 0.537597,-0.537597zm4.30078,0l0,-8.959958a0.537597,0.537597 0 0 0 -0.537597,-0.537597l-1.075195,0a0.537597,0.537597 0 0 0 -0.537597,0.537597l0,8.959958a0.537597,0.537597 0 0 0 0.537597,0.537597l1.075195,0a0.537597,0.537597 0 0 0 0.537597,-0.537597zm4.30078,0l0,-6.092771a0.537597,0.537597 0 0 0 -0.537597,-0.537597l-1.075195,0a0.537597,0.537597 0 0 0 -0.537597,0.537597l0,6.092771a0.537597,0.537597 0 0 0 0.537597,0.537597l1.075195,0a0.537597,0.537597 0 0 0 0.537597,-0.537597zm4.30078,0l0,-10.393551a0.537597,0.537597 0 0 0 -0.537597,-0.537597l-1.075195,0a0.537597,0.537597 0 0 0 -0.537597,0.537597l0,10.393551a0.537597,0.537597 0 0 0 0.537597,0.537597l1.075195,0a0.537597,0.537597 0 0 0 0.537597,-0.537597z"
    />
</svg>