<?xml version="1.0" encoding="UTF-8"?>
<svg width="24px" height="24px" viewBox="0 0 24 24" version="1.1" xmlns="http://www.w3.org/2000/svg" xmlns:xlink="http://www.w3.org/1999/xlink">
    <!-- Generator: Sketch 46.1 (44463) - http://www.bohemiancoding.com/sketch -->
    <title>collaborators</title>
    <desc>Created with Sketch.</desc>
    <defs></defs>
    <g id="Page-1" stroke="none" stroke-width="1" fill="none" fill-rule="evenodd" stroke-linejoin="round">
        <g id="collaborators" stroke="#000000">
            <path d="M5.5,8.50106082 C7.15700141,8.50106082 8.5,7.15700141 8.5,5.50106082 C8.5,3.84405941 7.15700141,2.5 5.5,2.5 C3.84299859,2.5 2.5,3.84405941 2.5,5.50106082 C2.5,7.15700141 3.84299859,8.50106082 5.5,8.50106082 Z" id="Stroke-80"></path>
            <path d="M17.5,8.50106082 C19.1570014,8.50106082 20.5,7.15700141 20.5,5.50106082 C20.5,3.84405941 19.1570014,2.5 17.5,2.5 C15.8429986,2.5 14.5,3.84405941 14.5,5.50106082 C14.5,7.15700141 15.8429986,8.50106082 17.5,8.50106082 Z" id="Stroke-80"></path>
            <path d="M9.889,10.5 L1,10.5 C1,13.5 2.5,15.822 3.5,16.677 L3.5,21.5 L7.5,21.5 L7.5,16.677 C8.5,15.822 9.889,13.5 9.889,10.5 Z" id="Stroke-81"></path>
            <path d="M21.889,10.5 L13,10.5 C13,13.5 14.5,15.822 15.5,16.677 L15.5,21.5 L19.5,21.5 L19.5,16.677 C20.5,15.822 21.889,13.5 21.889,10.5 Z" id="Stroke-81"></path>
        </g>
    </g>
</svg>