<?xml version="1.0" encoding="UTF-8"?>
<svg width="24px" height="24px" viewBox="0 0 24 24" version="1.1" xmlns="http://www.w3.org/2000/svg" xmlns:xlink="http://www.w3.org/1999/xlink">
    <!-- Generator: Sketch 46.1 (44463) - http://www.bohemiancoding.com/sketch -->
    <title>create ab</title>
    <desc>Created with Sketch.</desc>
    <defs></defs>
    <g id="Page-1" stroke="none" stroke-width="1" fill="none" fill-rule="evenodd">
        <g id="create-ab">
            <path d="M20.0277778,23.5 L3.97222222,23.5 C3.68888889,23.5 3.5,23.3166667 3.5,23.0416667 L3.5,1.95833333 C3.5,1.68333333 3.78333333,1.5 3.97222222,1.5 L13.9833333,1.5 C14.0777778,1.5 14.4055556,1.5 14.5,1.5 L20.4055556,7.36666667 C20.5,7.45833333 20.5,7.55 20.5,7.73333333 L20.5,23.0416667 C20.5,23.3166667 20.3111111,23.5 20.0277778,23.5 Z M3.5,1.5 L14.5,1.5 L20.5,7.5 L20.5,23.5 L3.5,23.5 L3.5,1.5 Z" id="Shape" stroke="#000000" stroke-linejoin="round" fill-rule="nonzero"></path>
            <path d="M10.1,15 C9.6,15 9.1,14.6 9.1,14 C9.1,13.5 9.5,13 10.1,13 C10.6,13 11.1,13.4 11.1,14 C11,14.5 10.6,15 10.1,15 Z" id="Shape" fill="#000000" fill-rule="nonzero"></path>
            <path d="M13.2,16 C12.7,16 12.2,15.6 12.2,15 C12.2,14.5 12.6,14 13.2,14 C13.7,14 14.2,14.4 14.2,15 C14.2,15.6 13.7,16 13.2,16 Z" id="Shape" fill="#000000" fill-rule="nonzero"></path>
            <path d="M16.3,12.4 C15.8,12.4 15.3,12 15.3,11.4 C15.3,10.9 15.7,10.4 16.3,10.4 C16.8,10.4 17.3,10.8 17.3,11.4 C17.3,11.9 16.9,12.4 16.3,12.4 Z" id="Shape" fill="#000000" fill-rule="nonzero"></path>
            <path d="M6.9,17.6 C6.4,17.6 5.9,17.2 5.9,16.6 C5.9,16.1 6.3,15.6 6.9,15.6 C7.4,15.6 7.9,16 7.9,16.6 C7.9,17.2 7.5,17.6 6.9,17.6 Z" id="Shape" fill="#000000" fill-rule="nonzero"></path>
            <path d="M7.3,16.7 C7.2,16.7 7,16.6 7,16.5 C6.8,16.3 6.9,16 7.1,15.9 L9.4,14 C9.6,13.8 9.9,13.9 10,14.1 C10.2,14.3 10.1,14.6 9.9,14.7 L7.6,16.6 C7.5,16.7 7.4,16.7 7.3,16.7 Z" id="Shape" fill="#000000" fill-rule="nonzero"></path>
            <path d="M12.7,15.3 C12.7,15.3 12.6,15.3 12.6,15.3 L10.4,14.6 C10.2,14.5 10,14.3 10.1,14 C10.2,13.8 10.4,13.6 10.7,13.7 L12.9,14.4 C13.1,14.5 13.3,14.7 13.2,15 C13.1,15.2 12.9,15.3 12.7,15.3 Z" id="Shape" fill="#000000" fill-rule="nonzero"></path>
            <path d="M13.5,15.1 C13.4,15.1 13.3,15.1 13.2,15 C13,14.8 13,14.6 13.2,14.4 L15.7,11.5 C15.9,11.3 16.1,11.3 16.3,11.5 C16.5,11.7 16.5,11.9 16.3,12.1 L13.9,15 C13.8,15.1 13.7,15.1 13.5,15.1 Z" id="Shape" fill="#000000" fill-rule="nonzero"></path>
            <polyline id="Path-12" stroke="#000000" points="14.5 1.5 14.5 7.5 20.5 7.5"></polyline>
        </g>
    </g>
</svg>