<?xml version="1.0" encoding="UTF-8"?>
<svg width="24px" height="24px" viewBox="0 0 24 24" version="1.1" xmlns="http://www.w3.org/2000/svg" xmlns:xlink="http://www.w3.org/1999/xlink">
    <!-- Generator: Sketch 46.1 (44463) - http://www.bohemiancoding.com/sketch -->
    <title>create campaign</title>
    <desc>Created with Sketch.</desc>
    <defs></defs>
    <g id="Page-1" stroke="none" stroke-width="1" fill="none" fill-rule="evenodd">
        <g id="create-campaign" fill-rule="nonzero" fill="#000000">
            <path d="M0.5,17.5 C0.2,17.5 0,17.3 0,17 L0,2.5 C0,2.2 0.2,2 0.5,2 L5.5,2 C5.6,2 5.8,2.1 5.9,2.1 L7.8,4 L18.6,4 C18.9,4 19.1,4.2 19.1,4.5 L19.1,5 C19.1,5.3 18.9,5.5 18.6,5.5 C18.3,5.5 18.1,5.3 18.1,5 L7.5,5 C7.4,5 7.2,4.9 7.1,4.9 L5.3,3 L1,3 L1,17 C1,17.3 0.8,17.5 0.5,17.5 Z" id="Shape"></path>
            <path d="M2.5,19.5 C2.2,19.5 2,19.3 2,19 L2,6.5 C2,6.2 2.2,6 2.5,6 L20.5,6 C20.8,6 21,6.2 21,6.5 L21,7 C21,7.3 20.8,7.5 20.5,7.5 C20.2,7.5 20,7.3 20,7 L3,7 L3,19 C3,19.3 2.8,19.5 2.5,19.5 Z" id="Shape"></path>
            <path d="M22.5,21 L4.5,21 C4.2,21 4,20.8 4,20.5 L4,8.5 C4,8.2 4.2,8 4.5,8 L22.5,8 C22.8,8 23,8.2 23,8.5 L23,20.5 C23,20.8 22.8,21 22.5,21 Z M5,20 L22,20 L22,9 L5,9 L5,20 Z" id="Shape"></path>
            <g id="Group" transform="translate(7.000000, 16.000000)">
                <circle id="Oval" cx="1.9" cy="1.2" r="1"></circle>
                <path d="M1.9,2.3 C1.3,2.3 0.8,1.8 0.8,1.2 C0.8,0.6 1.3,0.1 1.9,0.1 C2.5,0.1 3,0.6 3,1.2 C3,1.8 2.5,2.3 1.9,2.3 Z M1.9,1.1 C1.9,1.1 1.8,1.2 1.9,1.1 C1.8,1.3 2,1.3 1.9,1.1 C2,1.2 2,1.1 1.9,1.1 Z" id="Shape"></path>
            </g>
            <g id="Group" transform="translate(11.000000, 13.000000)">
                <circle id="Oval" cx="1.5" cy="1.2" r="1"></circle>
                <path d="M1.5,2.3 C0.9,2.3 0.4,1.8 0.4,1.2 C0.4,0.6 0.9,0.1 1.5,0.1 C2.1,0.1 2.6,0.6 2.6,1.2 C2.6,1.8 2.1,2.3 1.5,2.3 Z M1.5,1.1 C1.4,1.1 1.4,1.2 1.5,1.1 C1.4,1.3 1.6,1.3 1.5,1.1 C1.6,1.2 1.5,1.1 1.5,1.1 Z" id="Shape"></path>
            </g>
            <g id="Group" transform="translate(15.000000, 14.000000)">
                <circle id="Oval" cx="1.1" cy="1.4" r="1"></circle>
                <path d="M1.1,2.5 C0.5,2.5 1.77635684e-15,2 1.77635684e-15,1.4 C1.77635684e-15,0.8 0.5,0.3 1.1,0.3 C1.7,0.3 2.2,0.8 2.2,1.4 C2.2,2 1.7,2.5 1.1,2.5 Z M1.1,1.3 C1,1.3 1,1.4 1.1,1.3 C1,1.5 1.2,1.5 1.1,1.3 C1.2,1.4 1.1,1.3 1.1,1.3 Z" id="Shape"></path>
            </g>
            <g id="Group" transform="translate(18.000000, 10.000000)">
                <circle id="Oval" cx="1.7" cy="1.2" r="1"></circle>
                <path d="M1.7,2.3 C1.1,2.3 0.6,1.8 0.6,1.2 C0.6,0.6 1.1,0.1 1.7,0.1 C2.3,0.1 2.8,0.6 2.8,1.2 C2.8,1.8 2.3,2.3 1.7,2.3 Z M1.7,1.1 C1.6,1.1 1.6,1.2 1.7,1.1 C1.6,1.3 1.7,1.3 1.7,1.1 C1.7,1.2 1.7,1.1 1.7,1.1 Z" id="Shape"></path>
            </g>
            <path d="M9.4,17.3 C9.3,17.3 9.1,17.2 9,17.1 C8.8,16.9 8.9,16.6 9.1,16.4 L11.8,14.2 C12,14 12.3,14.1 12.5,14.3 C12.7,14.5 12.6,14.8 12.4,15 L9.7,17.2 C9.6,17.3 9.5,17.3 9.4,17.3 Z" id="Shape"></path>
            <path d="M15.5,15.7 C15.4,15.7 15.4,15.7 15.3,15.7 L12.8,14.9 C12.5,14.8 12.4,14.5 12.5,14.3 C12.6,14 12.9,13.9 13.1,14 L15.6,14.8 C15.9,14.9 16,15.2 15.9,15.4 C15.9,15.6 15.7,15.7 15.5,15.7 Z" id="Shape"></path>
            <path d="M16.5,15.5 C16.4,15.5 16.3,15.5 16.2,15.4 C16,15.2 16,14.9 16.1,14.7 L18.9,11.4 C19.1,11.2 19.4,11.2 19.6,11.3 C19.8,11.5 19.8,11.8 19.7,12 L16.9,15.3 C16.7,15.4 16.6,15.5 16.5,15.5 Z" id="Shape"></path>
        </g>
    </g>
</svg>