<?xml version="1.0" encoding="UTF-8"?>
<svg width="24px" height="24px" viewBox="0 0 24 24" version="1.1" xmlns="http://www.w3.org/2000/svg" xmlns:xlink="http://www.w3.org/1999/xlink">
    <!-- Generator: Sketch 46.2 (44496) - http://www.bohemiancoding.com/sketch -->
    <title>create mvt</title>
    <desc>Created with Sketch.</desc>
    <defs></defs>
    <g id="Page-1" stroke="none" stroke-width="1" fill="none" fill-rule="evenodd" stroke-linejoin="round">
        <g id="create-mvt" stroke="#000000">
            <polygon id="v" points="2.5 1.5 8 1.5 10.5 4 10.5 11.5 2.5 11.5"></polygon>
            <polyline id="Path-14" points="7.5 1.5 7.5 4.5 10 4.5"></polyline>
            <polygon id="v" points="13.5 1.5 19 1.5 21.5 4 21.5 11.5 13.5 11.5"></polygon>
            <polyline id="Path-14" points="18.5 1.5 18.5 4.5 21 4.5"></polyline>
            <polygon id="v" points="13.5 13.5 19 13.5 21.5 16 21.5 23.5 13.5 23.5"></polygon>
            <polyline id="Path-14" points="18.5 13.5 18.5 16.5 21 16.5"></polyline>
            <polygon id="v" points="2.5 13.5 8 13.5 10.5 16 10.5 23.5 2.5 23.5"></polygon>
            <polyline id="Path-14" points="7.5 13.5 7.5 16.5 10 16.5"></polyline>
        </g>
    </g>
</svg>