<?xml version="1.0" encoding="utf-8"?>
<!-- Generator: Adobe Illustrator 23.1.1, SVG Export Plug-In . SVG Version: 6.00 Build 0)  -->
<svg version="1.1" id="Layer_1" xmlns="http://www.w3.org/2000/svg" xmlns:xlink="http://www.w3.org/1999/xlink" x="0px" y="0px"
	 viewBox="0 0 17 16.2" style="enable-background:new 0 0 17 16.2;" xml:space="preserve">
<style type="text/css">
	.st0{fill:#080736;}
</style>
<path class="st0" d="M16.5,1H15V0.5C15,0.2,14.8,0,14.5,0h-3C11.2,0,11,0.2,11,0.5V1h-0.3C9.8,1,9,1.4,8.5,2.1C8,1.4,7.2,1,6.3,1
	H0.5C0.2,1,0,1.2,0,1.5v12C0,13.8,0.2,14,0.5,14h4.8C6.4,14,8,14.5,8,15.7c0,0.3,0.2,0.5,0.5,0.5S9,16,9,15.7c0-1.2,1.6-1.7,2.7-1.7
	h4.8c0.3,0,0.5-0.2,0.5-0.5v-12C17,1.2,16.8,1,16.5,1z M12,1h2v4.5l-0.6-0.6c-0.2-0.2-0.5-0.2-0.7,0L12,5.5V1z M5.3,13H1V2h5.3
	C7.8,2,8,3.5,8,4.1v9.7C7.2,13.3,6.3,13,5.3,13z M16,13h-4.3c-1,0-1.9,0.3-2.7,0.8V4.1C9,3.5,9.2,2,10.7,2H11v4.7
	c0,0.3,0.2,0.5,0.5,0.5c0.1,0,0.3-0.1,0.4-0.1L13,5.9L14.1,7c0.2,0.2,0.5,0.2,0.7,0C14.9,6.9,15,6.8,15,6.7V2h1V13z"/>
</svg>
