<?xml version="1.0" encoding="UTF-8"?>
<svg width="24px" height="24px" viewBox="0 0 24 24" version="1.1" xmlns="http://www.w3.org/2000/svg" xmlns:xlink="http://www.w3.org/1999/xlink">
    <!-- Generator: Sketch 46.2 (44496) - http://www.bohemiancoding.com/sketch -->
    <title>ellipsis</title>
    <desc>Created with Sketch.</desc>
    <defs></defs>
    <g id="Page-1" stroke="none" stroke-width="1" fill="none" fill-rule="evenodd">
        <g id="ellipsis" stroke="#000000">
            <path d="M6,12 C6,12.8285 5.3285,13.5 4.5,13.5 C3.6715,13.5 3,12.8285 3,12 C3,11.1715 3.6715,10.5 4.5,10.5 C5.3285,10.5 6,11.1715 6,12" id="stroke-ball" stroke-width="3"></path>
            <path d="M22,12 C22,12.8285 21.3285,13.5 20.5,13.5 C19.6715,13.5 19,12.8285 19,12 C19,11.1715 19.6715,10.5 20.5,10.5 C21.3285,10.5 22,11.1715 22,12" id="stroke-ball" stroke-width="3"></path>
            <path d="M21.5,12 C21.5,12.5523333 21.0523333,13 20.5,13 C19.9476667,13 19.5,12.5523333 19.5,12 C19.5,11.4476667 19.9476667,11 20.5,11 C21.0523333,11 21.5,11.4476667 21.5,12" id="stroke-ball" stroke-width="2"></path>
            <path d="M21,12 C21,12.2761667 20.7761667,12.5 20.5,12.5 C20.2238333,12.5 20,12.2761667 20,12 C20,11.7238333 20.2238333,11.5 20.5,11.5 C20.7761667,11.5 21,11.7238333 21,12" id="stroke-ball"></path>
            <path d="M14,12 C14,12.8285 13.3285,13.5 12.5,13.5 C11.6715,13.5 11,12.8285 11,12 C11,11.1715 11.6715,10.5 12.5,10.5 C13.3285,10.5 14,11.1715 14,12" id="stroke-ball" stroke-width="3"></path>
            <path d="M13.5,12 C13.5,12.5523333 13.0523333,13 12.5,13 C11.9476667,13 11.5,12.5523333 11.5,12 C11.5,11.4476667 11.9476667,11 12.5,11 C13.0523333,11 13.5,11.4476667 13.5,12" id="stroke-ball" stroke-width="2"></path>
            <path d="M13,12 C13,12.2761667 12.7761667,12.5 12.5,12.5 C12.2238333,12.5 12,12.2761667 12,12 C12,11.7238333 12.2238333,11.5 12.5,11.5 C12.7761667,11.5 13,11.7238333 13,12" id="stroke-ball"></path>
            <path d="M5.5,12 C5.5,12.5523333 5.05233333,13 4.5,13 C3.94766667,13 3.5,12.5523333 3.5,12 C3.5,11.4476667 3.94766667,11 4.5,11 C5.05233333,11 5.5,11.4476667 5.5,12" id="stroke-ball" stroke-width="2"></path>
            <path d="M5,12 C5,12.2761667 4.77616667,12.5 4.5,12.5 C4.22383333,12.5 4,12.2761667 4,12 C4,11.7238333 4.22383333,11.5 4.5,11.5 C4.77616667,11.5 5,11.7238333 5,12" id="stroke-ball"></path>
        </g>
    </g>
</svg>