<?xml version="1.0" encoding="UTF-8"?>
<svg width="24px" height="24px" viewBox="0 0 24 24" version="1.1" xmlns="http://www.w3.org/2000/svg" xmlns:xlink="http://www.w3.org/1999/xlink">
    <!-- Generator: Sketch 46.2 (44496) - http://www.bohemiancoding.com/sketch -->
    <title>emulate</title>
    <desc>Created with Sketch.</desc>
    <defs></defs>
    <g id="Page-1" stroke="none" stroke-width="1" fill="none" fill-rule="evenodd" stroke-linejoin="round">
        <g id="emulate" stroke="#000000">
            <path d="M17.7841613,8.8030424 L17.7841613,10.1112703 C18.7432727,10.590826 18.263717,12.9886044 16.8250499,12.9886044 C16.8250499,15.8659386 13.4681601,17.7841613 12.0294931,17.7841613 C10.590826,17.7841613 7.23393619,15.8659386 7.23393619,12.9886044 C5.79526913,12.9886044 5.31571345,10.590826 6.27482482,10.1112703 L6.27482482,8.8030424" id="Stroke-354"></path>
            <path d="M11.5499374,15 L12.5090487,15" id="Stroke-355" stroke-linecap="round"></path>
            <path d="M12.0294931,9.15244667 C6.75438051,9.15244667 2.43837933,8.1933353 2.43837933,8.1933353 L6.75438051,5.79555687 L9.15215894,1 L12.0294931,2.91822275" id="Stroke-356" stroke-linecap="round"></path>
            <path d="M12.0294931,9.15244667 C17.3046056,9.15244667 21.6206068,8.1933353 21.6206068,8.1933353 L17.3046056,5.79555687 L14.9068272,1 L12.0294931,2.91822275" id="Stroke-357" stroke-linecap="round"></path>
            <path d="M11.0703817,10.111558 C11.0703817,10.6419466 10.6416589,11.0706694 10.1112703,11.0706694 L9.15215894,11.0706694 C8.62177035,11.0706694 8.19304757,10.6419466 8.19304757,10.111558 L8.19304757,9.15244667 L11.0703817,9.15244667 L11.0703817,10.111558 Z" id="Stroke-358" stroke-linecap="round"></path>
            <path d="M15.8659386,10.111558 C15.8659386,10.6419466 15.4372158,11.0706694 14.9068272,11.0706694 L13.9477158,11.0706694 C13.4173272,11.0706694 12.9886044,10.6419466 12.9886044,10.111558 L12.9886044,9.15244667 L15.8659386,9.15244667 L15.8659386,10.111558 Z" id="Stroke-359" stroke-linecap="round"></path>
            <path d="M4.83615776,23.0595616 L6.27482482,20.1822275 L3.3974907,20.6617832 C3.3974907,20.6617832 3.87704639,15.8662263 3.87704639,13.4684479 L5.31571345,13.4684479 C5.31571345,18.7435604 14.319851,23.0595616 15.8659386,23.0595616 L4.83615776,23.0595616 Z" id="Stroke-360" stroke-linecap="round"></path>
            <path d="M3.78334121,16.4394872 C2.82422983,16.9190428 1,17.6920866 1,19.9373663 L1,23.0592739 L12.0297808,23.0592739" id="Stroke-361"></path>
            <path d="M20.3093097,16.4394872 C21.2684211,16.9190428 23.059082,17.6920866 23.059082,19.9373663 L23.059082,23.0592739 L12.0293012,23.0592739" id="Stroke-362"></path>
            <path d="M19.2228284,23.0595616 L17.7841613,20.1822275 L20.6614954,20.6617832 C20.6614954,20.6617832 20.1819397,15.8662263 20.1819397,13.4684479 L18.7432727,13.4684479 C18.263717,17.3048933 13.8997602,21.6966643 12.3536727,21.6966643" id="Stroke-363"></path>
            <path d="M6.75438051,5.79555687 C6.75438051,5.79555687 9.15215894,6.75466824 12.0294931,6.75466824 C14.9068272,6.75466824 17.3046056,5.79555687 17.3046056,5.79555687" id="Stroke-364"></path>
        </g>
    </g>
</svg>