<?xml version="1.0" encoding="UTF-8"?>
<svg width="24px" height="24px" viewBox="0 0 24 24" version="1.1" xmlns="http://www.w3.org/2000/svg" xmlns:xlink="http://www.w3.org/1999/xlink">
    <!-- Generator: Sketch 46.1 (44463) - http://www.bohemiancoding.com/sketch -->
    <title>experiment</title>
    <desc>Created with Sketch.</desc>
    <defs></defs>
    <g id="Page-1" stroke="none" stroke-width="1" fill="none" fill-rule="evenodd">
        <g id="experiment">
            <path d="M8.5,2 L8.5,12 L5.32195443,16.0287042 L2.28756966,20.1256769 C1.91514015,20.6340149 1.92124555,21.2224763 2.20921701,21.6836305 C2.49718846,22.1447848 3.04260437,22.478632 3.73251479,22.4795222 L11.7397494,22.4902053 L19.7490192,22.4999982 C20.4307891,22.5008884 20.9802753,22.1750536 21.272317,21.7219117 C21.5643587,21.2687697 21.5969208,20.6874305 21.2438251,20.177312 L18.3773389,15.9298854 L15.5108527,12 L15.5108527,2 C13.9591543,2.66666667 12.78887,3 12,3 C11.21113,3 10.0444633,2.66666667 8.5,2 Z" id="Stroke-329" stroke="#000000" stroke-linecap="round" stroke-linejoin="round"></path>
            <polyline id="Stroke-330" stroke="#000000" points="8.437 2 7.593 2 6.5 2.50830043"></polyline>
            <polyline id="Stroke-331" stroke="#000000" points="15.5 2 16.3453072 2 17.4400001 2.50830043"></polyline>
            <path d="M11.4534051,6.8604 C12.3044051,6.7234 13.1034051,7.3024 13.2404051,8.1524 C13.3774051,9.0034 12.7994051,9.8044 11.9484051,9.9414 C11.0974051,10.0774 10.2974051,9.4984 10.1604051,8.6484 C10.0234051,7.7974 10.6024051,6.9974 11.4534051,6.8604" id="Fill-332" fill="#000000"></path>
            <path d="M14.0217051,17.519 C14.8397051,17.388 15.6097051,17.944 15.7417051,18.762 C15.8727051,19.58 15.3157051,20.35 14.4987051,20.481 C13.6797051,20.612 12.9107051,20.056 12.7787051,19.238 C12.6477051,18.42 13.2047051,17.65 14.0217051,17.519" id="Fill-333" fill="#000000"></path>
            <path d="M12.5383051,13.5684 C13.0723051,13.4834 13.5753051,13.8474 13.6613051,14.3814 C13.7463051,14.9164 13.3833051,15.4184 12.8483051,15.5044 C12.3133051,15.5894 11.8103051,15.2254 11.7263051,14.6914 C11.6403051,14.1564 12.0043051,13.6544 12.5383051,13.5684" id="Fill-334" fill="#000000"></path>
        </g>
    </g>
</svg>