<?xml version="1.0" encoding="UTF-8"?>
<svg width="24px" height="24px" viewBox="0 0 24 24" version="1.1" xmlns="http://www.w3.org/2000/svg" xmlns:xlink="http://www.w3.org/1999/xlink">
    <!-- Generator: Sketch 46.2 (44496) - http://www.bohemiancoding.com/sketch -->
    <title>extensions</title>
    <desc>Created with Sketch.</desc>
    <defs></defs>
    <g id="Page-1" stroke="none" stroke-width="1" fill="none" fill-rule="evenodd" stroke-linecap="round" stroke-linejoin="round">
        <g id="extensions" stroke="#000000">
            <path d="M20.966,17.5 L22.5,17.5 L22.5,15.5 L20.965,15.5 C20.829,15.5 20.606,14.13 20.311,13.646 L21.808,12.176 L19.964,10.345 L18.435,11.849 C17.952,11.554 17.5,11.337 16.5,11.201 L16.5,9.5 L14.5,9.5 L14.5,11.201 C14.5,11.337 13.13,11.561 12.647,11.854 L11.175,10.357 L9.343,12.202 L10.848,13.647 C10.553,14.13 10.337,15.5 10.2,15.5 L8.5,15.5 L8.5,17.5 L10.2,17.5 C10.337,18.5 10.56,18.953 10.855,19.436 L9.357,20.949 L11.202,22.801 L12.647,21.307 C13.13,21.603 14.5,21.829 14.5,21.966 L14.5,23.5 L16.5,23.5 L16.5,21.966 C17.5,21.829 17.953,21.606 18.435,21.312 L19.948,22.809 L21.801,20.964 L20.307,19.436 C20.602,18.953 20.829,18.5 20.966,17.5 Z" id="Stroke-335"></path>
            <path d="M18.5,16.648 C18.5,18.3048995 17.1568995,19.648 15.5,19.648 C13.8431005,19.648 12.5,18.3048995 12.5,16.648 C12.5,14.9911005 13.8431005,13.648 15.5,13.648 C17.1568995,13.648 18.5,14.9911005 18.5,16.648 Z" id="Stroke-336"></path>
            <path d="M5.41652174,19.5 L2.41304348,19.5 C1.35513043,19.5 0.5,18.604 0.5,17.5 L0.5,3.5 C0.5,2.396 1.35513043,1.5 2.41304348,1.5 L20.5869565,1.5 C21.643913,1.5 22.5,2.396 22.5,3.5 L22.5,9.125" id="Stroke-337"></path>
            <path d="M0,6.5 L22,6.5" id="Stroke-338"></path>
            <path d="M4,4 C4,4.276 3.776,4.5 3.5,4.5 C3.224,4.5 3,4.276 3,4 C3,3.724 3.224,3.5 3.5,3.5 C3.776,3.5 4,3.724 4,4 Z" id="Stroke-339"></path>
            <path d="M7,4 C7,4.276 6.776,4.5 6.5,4.5 C6.224,4.5 6,4.276 6,4 C6,3.724 6.224,3.5 6.5,3.5 C6.776,3.5 7,3.724 7,4 Z" id="Stroke-340"></path>
            <path d="M10,4 C10,4.276 9.776,4.5 9.5,4.5 C9.224,4.5 9,4.276 9,4 C9,3.724 9.224,3.5 9.5,3.5 C9.776,3.5 10,3.724 10,4 Z" id="Stroke-341"></path>
        </g>
    </g>
</svg>