<?xml version="1.0" encoding="UTF-8"?>
<svg width="24px" height="24px" viewBox="0 0 24 24" version="1.1" xmlns="http://www.w3.org/2000/svg" xmlns:xlink="http://www.w3.org/1999/xlink">
    <!-- Generator: Sketch 46.2 (44496) - http://www.bohemiancoding.com/sketch -->
    <title>eye closed</title>
    <desc>Created with Sketch.</desc>
    <defs></defs>
    <g id="Page-1" stroke="none" stroke-width="1" fill="none" fill-rule="evenodd" stroke-linecap="round" stroke-linejoin="round">
        <g id="eye-closed" stroke="#000000">
            <path d="M19,8.30000019 C21.2558321,9.94101077 22.5584323,11.4531923 22.5584323,11.4531923 C22.5584323,11.4531923 17.797045,17.2999992 11.9220775,17.5 C10.9622874,17.532674 10.0306561,17.4416413 9.14552643,17.1700001" id="Stroke-172"></path>
            <path d="M4.30350784,15 C1.97328416,13.3600137 0.5,11.5533281 0.5,11.5533281 C0.5,11.5533281 5.43554986,5.5 11.5232712,5.5 C12.3476202,5.5 13.1508812,5.61082247 13.9234687,5.80266641" id="Stroke-173"></path>
            <path d="M7.5,11.5 C7.5,9.29 9.291,7.5 11.5,7.5" id="Stroke-174"></path>
            <path d="M15.5,11.5 C15.5,13.71 13.709,15.5 11.5,15.5" id="Stroke-175"></path>
            <path d="M21,2 L2,21" id="Stroke-176"></path>
        </g>
    </g>
</svg>