<svg viewBox="0 0 16 16" xmlns="http://www.w3.org/2000/svg">
<path fill-rule="evenodd" clip-rule="evenodd" d="M1.59985 5.58332C1.59985 5.36241 1.77894 5.18332 1.99985 5.18332H14.2221C14.443 5.18332 14.6221 5.36241 14.6221 5.58332C14.6221 5.80423 14.443 5.98332 14.2221 5.98332H1.99985C1.77894 5.98332 1.59985 5.80423 1.59985 5.58332Z"/>
<path fill-rule="evenodd" clip-rule="evenodd" d="M1.59985 10.1667C1.59985 9.94578 1.77894 9.76669 1.99985 9.76669H14.2221C14.443 9.76669 14.6221 9.94578 14.6221 10.1667C14.6221 10.3876 14.443 10.5667 14.2221 10.5667H1.99985C1.77894 10.5667 1.59985 10.3876 1.59985 10.1667Z"/>
<path fill-rule="evenodd" clip-rule="evenodd" d="M6.62726 0.602457C6.84682 0.626853 7.00504 0.824621 6.98064 1.04418L5.45286 14.7942C5.42847 15.0137 5.2307 15.172 5.01114 15.1476C4.79157 15.1232 4.63336 14.9254 4.65776 14.7058L6.18553 0.955838C6.20993 0.736276 6.4077 0.578062 6.62726 0.602457Z"/>
<path fill-rule="evenodd" clip-rule="evenodd" d="M11.2108 0.602457C11.4303 0.626853 11.5885 0.824621 11.5641 1.04418L10.0364 14.7942C10.012 15.0137 9.81419 15.172 9.59463 15.1476C9.37507 15.1232 9.21686 14.9254 9.24125 14.7058L10.769 0.955838C10.7934 0.736276 10.9912 0.578062 11.2108 0.602457Z"/>
</svg>
