<?xml version="1.0" encoding="UTF-8"?>
<svg width="24px" height="24px" viewBox="0 0 24 24" version="1.1" xmlns="http://www.w3.org/2000/svg" xmlns:xlink="http://www.w3.org/1999/xlink">
    <!-- Generator: Sketch 46.1 (44463) - http://www.bohemiancoding.com/sketch -->
    <title>help</title>
    <desc>Created with Sketch.</desc>
    <defs></defs>
    <g id="Page-1" stroke="none" stroke-width="1" fill="none" fill-rule="evenodd">
        <g id="help">
            <path d="M23.5,12 C23.5,18.352 18.322,23.5 11.936,23.5 C5.55,23.5 0.5,18.371 0.5,12.021 C0.5,5.669 5.55,0.5 11.936,0.5 C18.322,0.5 23.5,5.648 23.5,12 Z" id="Stroke-198" stroke="#000000"></path>
            <path d="M10.6993749,16.6573078 C10.6993749,15.9592205 11.3060502,15.3549621 12.028777,15.3549621 C12.7496167,15.3549621 13.358179,15.9592205 13.358179,16.6573078 C13.358179,17.3760375 12.7496167,18 12.028777,18 C11.3060502,18 10.6993749,17.3760375 10.6993749,16.6573078 M10.6805048,12.4631541 C10.6805048,10.1587153 13.737469,9.93164922 13.737469,8.32623602 C13.737469,7.58874053 13.1496639,6.96571635 11.9334827,6.96571635 C10.7550419,6.96571635 9.92003774,7.4761458 9.29260526,8.28776615 L8,6.87094912 C8.96898219,5.68213641 10.4314188,5 12.1429414,5 C14.5375634,5 16,6.26669073 16,7.96687117 C16,10.7639119 12.6165821,10.9900397 12.6165821,12.6714543 C12.6165821,12.9735835 12.7703739,13.3329484 13.0354995,13.5215446 L11.3456776,14.0892097 C10.8899634,13.6547817 10.6805048,13.0861783 10.6805048,12.4631541" id="Fill-199" fill="#000000"></path>
        </g>
    </g>
</svg>