<?xml version="1.0" encoding="UTF-8"?>
<svg width="24px" height="24px" viewBox="0 0 24 24" version="1.1" xmlns="http://www.w3.org/2000/svg" xmlns:xlink="http://www.w3.org/1999/xlink">
    <!-- Generator: Sketch 46.2 (44496) - http://www.bohemiancoding.com/sketch -->
    <title>help</title>
    <desc>Created with Sketch.</desc>
    <defs></defs>
    <g id="Page-1" stroke="none" stroke-width="1" fill="none" fill-rule="evenodd">
        <g id="help">
            <path d="M23.5,12 C23.5,18.352 18.322,23.5 11.936,23.5 C5.55,23.5 0.5,18.371 0.5,12.021 C0.5,5.669 5.55,0.5 11.936,0.5 C18.322,0.5 23.5,5.648 23.5,12 Z" id="Stroke-198" stroke="#000000"></path>
            <path d="M10.8613,17.4234 C10.8613,16.6794 11.5043,16.0354 12.2703,16.0354 C13.0343,16.0354 13.6793,16.6794 13.6793,17.4234 C13.6793,18.1894 13.0343,18.8544 12.2703,18.8544 C11.5043,18.8544 10.8613,18.1894 10.8613,17.4234" id="Path" fill="#000000"></path>
            <path d="M10.8413,12.9534 C10.8413,10.4974 14.0813,10.2554 14.0813,8.5444 C14.0813,7.7584 13.4583,7.0944 12.1693,7.0944 C10.9203,7.0944 10.0353,7.6384 9.3703,8.5034 L8.0003,6.9934 C9.0273,5.7264 10.5773,4.9994 12.3913,4.9994 C14.9293,4.9994 16.4793,6.3494 16.4793,8.1614 C16.4793,11.1424 12.8933,11.3834 12.8933,13.1754 C12.8933,13.4974 13.0563,13.8804 13.3373,14.0814 L11.5463,14.6864 C11.0633,14.2234 10.8413,13.6174 10.8413,12.9534" id="Path" fill="#000000"></path>
        </g>
    </g>
</svg>