<?xml version="1.0" encoding="UTF-8"?>
<svg width="24px" height="24px" viewBox="0 0 24 24" version="1.1" xmlns="http://www.w3.org/2000/svg" xmlns:xlink="http://www.w3.org/1999/xlink">
    <!-- Generator: Sketch 46.1 (44463) - http://www.bohemiancoding.com/sketch -->
    <title>live variables</title>
    <desc>Created with Sketch.</desc>
    <defs></defs>
    <g id="Page-1" stroke="none" stroke-width="1" fill="none" fill-rule="evenodd">
        <g id="live-variables">
            <path d="M16.5,0.5 L20.2695652,0.5 C21.5017391,0.5 22.5,1.59808696 22.5,2.95252174 L22.5,20.0474783 C22.5,21.401913 21.5017391,22.5 20.2695652,22.5 L16.5,22.5" id="Stroke-117" stroke="#231F20" stroke-linecap="round"></path>
            <path d="M6.5,22.5 L2.73043478,22.5 C1.49826087,22.5 0.5,21.401913 0.5,20.0474783 L0.5,2.95252174 C0.5,1.59808696 1.49826087,0.5 2.73043478,0.5 L6.5,0.5" id="Stroke-118" stroke="#231F20" stroke-linecap="round"></path>
            <path d="M5.78382895,15.2053093 C5.97304825,15.0696282 6.16620962,15.0028155 6.36331305,15.0028155 C6.45890822,15.0028155 6.55253235,15.016178 6.647142,15.0449589 C6.74273717,15.0737397 6.84424544,15.1210225 6.95462336,15.1868073 L7.36952609,15.4211655 C7.42471506,15.4550858 7.47694747,15.4766714 7.52917988,15.4890061 C7.57944125,15.5013407 7.63758677,15.5064802 7.70065987,15.5064802 C7.8977633,15.5064802 8.04953295,15.4561137 8.15596881,15.353325 C8.26240466,15.2495084 8.53637844,14.8897479 8.97789014,14.2730157 C9.27058874,13.8711119 9.93285629,12.887424 10.9656783,11.3240079 C10.9656783,11.2664462 10.8750107,10.8254827 10.6936756,9.99700572 C10.5123404,9.17058455 10.3467735,8.47059349 10.1969749,7.89292099 C10.0471763,7.30908116 9.91314594,6.92465141 9.79488388,6.74065964 C9.67662182,6.5535842 9.45586597,6.46210225 9.13261633,6.46210225 C9.02223841,6.46210225 8.80443911,6.50321773 8.48118948,6.58647658 C8.2762019,6.63581516 8.05544605,6.69234895 7.81892193,6.75813371 L7.71248607,6.37575974 L9.02519496,5.90807115 C9.36519839,5.78266893 9.67859285,5.68399178 9.96636387,5.6110118 C10.2541349,5.53700393 10.5005142,5.5 10.7055018,5.5 C11.0366355,5.5 11.2859714,5.6027887 11.4515383,5.80733822 C11.7038307,6.13728995 11.9167024,6.78794244 12.0901534,7.7572399 L12.3385037,9.16441723 C13.0480761,8.03065785 13.6009512,7.23096174 13.9951581,6.77046836 C14.3499443,6.35109045 14.6850201,6.0386128 15.0003856,5.83200751 C15.3157511,5.62745799 15.6163339,5.52466929 15.9001628,5.52466929 C16.1682235,5.52466929 16.3850373,5.56578477 16.5506042,5.64698784 C16.8502014,5.79500358 17,6.07561673 17,6.48677154 C17,6.76635681 16.9251007,6.98426886 16.7753021,7.14050769 C16.6255035,7.2977744 16.4323421,7.37589381 16.195818,7.37589381 C16.1090925,7.37589381 16.026309,7.36561494 15.9474676,7.3450572 C15.8676408,7.32347158 15.7858428,7.29263497 15.6991173,7.25151949 L15.3906504,7.1158384 C15.3049104,7.0757508 15.2211415,7.04080265 15.1432856,7.01099392 C15.0644443,6.98221309 15.0043277,6.96782267 14.964907,6.96782267 C14.6101208,6.96782267 14.1173622,7.44784591 13.4866312,8.40583661 C12.8559002,9.36382731 12.5395492,9.91683053 12.5395492,10.0648463 C12.5395492,10.1892206 12.6124775,10.5890686 12.7593196,11.268502 C12.9051761,11.9469074 13.0648299,12.6654004 13.2372954,13.4219253 C13.3959637,14.1373346 13.529994,14.6307204 13.6403719,14.9020826 C13.8217071,15.3471577 14.0266947,15.5691813 14.2553346,15.5691813 C14.4691919,15.5691813 14.6850201,15.4458348 14.905776,15.1991419 C15.1265318,14.9514212 15.4576656,14.5084019 15.9001628,13.8659725 L16.2312966,14.0756614 C15.8912932,14.7170629 15.5404491,15.2659546 15.1787642,15.7182249 C14.4918588,16.5744548 13.8364898,17 13.2146285,17 C12.8194361,17 12.5080127,16.8036736 12.2793727,16.408965 C12.1453424,16.1776904 12.0152541,15.799428 11.8891079,15.2731498 L11.1558831,12.2254648 L8.73052532,15.544512 C8.25649156,16.1211566 7.8918502,16.5076421 7.63463022,16.7039685 C7.37938127,16.9013228 7.06204473,17 6.68360614,17 C6.17803582,17 5.83507584,16.8355381 5.65374068,16.5076421 C5.55124689,16.3339292 5.5,16.1283518 5.5,15.8909099 C5.5,15.5691813 5.59460965,15.3409903 5.78382895,15.2053093" id="Fill-119" fill="#000000"></path>
        </g>
    </g>
</svg>