<?xml version="1.0" encoding="UTF-8"?>
<svg width="24px" height="24px" viewBox="0 0 24 24" version="1.1" xmlns="http://www.w3.org/2000/svg" xmlns:xlink="http://www.w3.org/1999/xlink">
    <!-- Generator: Sketch 46.1 (44463) - http://www.bohemiancoding.com/sketch -->
    <title>orientation portrait</title>
    <desc>Created with Sketch.</desc>
    <defs></defs>
    <g id="Page-1" stroke="none" stroke-width="1" fill="none" fill-rule="evenodd">
        <g id="orientation-portrait" stroke="#000000">
            <path d="M10.5,2.41304348 C10.5,1.35704348 11.3270769,0.5 12.3461538,0.5 L20.6538462,0.5 C21.6729231,0.5 22.5,1.35704348 22.5,2.41304348 L22.5,20.5869565 C22.5,21.6429565 21.6729231,22.5 20.6538462,22.5 L12.3461538,22.5 C11.3270769,22.5 10.5,21.6429565 10.5,20.5869565 L10.5,2.41304348 Z" id="Stroke-374" stroke-linecap="round" stroke-linejoin="round"></path>
            <path d="M11.0536207,4.5 L22.0536207,4.5" id="Stroke-375" stroke-linecap="round" stroke-linejoin="round"></path>
            <path d="M10.5,18.5 L22,18.5" id="Stroke-376" stroke-linecap="round" stroke-linejoin="round"></path>
            <path d="M18.5,20.5 L14.5,20.5" id="Stroke-377" stroke-linecap="round" stroke-linejoin="round"></path>
            <path d="M16.48,2 C16.2151824,2 16,2.21518238 16,2.48000002 C16,2.74481765 16.2151824,2.96000004 16.48,2.96000004 C16.7448177,2.96000004 16.96,2.74481765 16.96,2.48000002 C16.96,2.21518238 16.7448177,2 16.48,2 Z" id="Stroke-378"></path>
            <path d="M12.0664062,22.5 L2.41497537,22.5 C1.35790897,22.5 0.5,21.6729231 0.5,20.6538462 L0.5,12.3461538 C0.5,11.3270769 1.35790897,10.5 2.41497537,10.5 L10.4724121,10.5" id="Stroke-379" opacity="0.3" stroke-linecap="round" stroke-linejoin="round"></path>
            <path d="M5.5,22 L5.5,11" id="Stroke-380" opacity="0.3" stroke-linecap="round" stroke-linejoin="round"></path>
            <path d="M2.5,16.4787438 C2.5,16.2144772 2.71447724,16 2.97874384,16 C3.24301044,16 3.45748769,16.2144772 3.45748769,16.4787438 C3.45748769,16.7430104 3.24301044,16.9574877 2.97874384,16.9574877 C2.71447724,16.9574877 2.5,16.7430104 2.5,16.4787438 Z" id="Stroke-381" opacity="0.3" stroke-linejoin="round"></path>
        </g>
    </g>
</svg>