<?xml version="1.0" encoding="UTF-8"?>
<svg width="24px" height="24px" viewBox="0 0 24 24" version="1.1" xmlns="http://www.w3.org/2000/svg" xmlns:xlink="http://www.w3.org/1999/xlink">
    <!-- Generator: Sketch 46.2 (44496) - http://www.bohemiancoding.com/sketch -->
    <title>pages</title>
    <desc>Created with Sketch.</desc>
    <defs></defs>
    <g id="Page-1" stroke="none" stroke-width="1" fill="none" fill-rule="evenodd" stroke-linecap="round" stroke-linejoin="round">
        <g id="pages" stroke="#000000">
            <path d="M19.5,16.8298667 C19.5,17.1994667 19.1958947,17.5 18.8197895,17.5 L2.18021053,17.5 C1.80410526,17.5 1.5,17.1994667 1.5,16.8298667 L1.5,4.17013333 C1.5,3.7996 1.80410526,3.5 2.18021053,3.5 L18.8197895,3.5 C19.1958947,3.5 19.5,3.7996 19.5,4.17013333 L19.5,16.8298667 Z" id="Stroke-216"></path>
            <path d="M2,6.5 L19,6.5" id="Stroke-217"></path>
            <path d="M21,9.5 L22,9.5" id="Stroke-218"></path>
            <path d="M21.075,6.5 L21.7229,6.5 C22.0991,6.5 22.5,6.7996 22.5,7.17013333 L22.5,19.7925333 C22.5,20.1630667 22.0991,20.5 21.7229,20.5 L4.1821,20.5 C3.80495,20.5 3.5,20.1630667 3.5,19.7925333 L3.5,19.1" id="Stroke-219"></path>
        </g>
    </g>
</svg>