<?xml version="1.0" encoding="utf-8"?>
<!-- Generator: Adobe Illustrator 19.2.1, SVG Export Plug-In . SVG Version: 6.00 Build 0)  -->
<svg version="1.1" id="Layer_1" xmlns="http://www.w3.org/2000/svg" xmlns:xlink="http://www.w3.org/1999/xlink" x="0px" y="0px"
	 viewBox="0 0 16 16" style="enable-background:new 0 0 16 16;" xml:space="preserve">
<g>
	<polygon points="9.1,4.7 2.7,11 3.4,11.7 9.8,5.4 	"/>
	<rect x="3.2" y="9.1" transform="matrix(0.7071 -0.7071 0.7071 0.7071 -4.5662 8.2661)" width="9" height="1"/>
	<path d="M15.5,3.5l-3-3c-0.6-0.5-1.4-0.5-2,0L0,11v0.4V16h4.6H5L15.5,5.5C16,5,16,4.1,15.5,3.5z M4.6,15h-1L1,12.4c0-0.4,0-1,0-1
		l8.1-8.1l3.6,3.6L4.6,15z M14.8,4.8l-1.4,1.4L9.8,2.6l1.4-1.4c0.2-0.2,0.5-0.2,0.7,0l3,3C14.9,4.4,14.9,4.7,14.8,4.8z"/>
</g>
</svg>
