<?xml version="1.0" encoding="UTF-8"?>
<svg width="24px" height="24px" viewBox="0 0 24 24" version="1.1" xmlns="http://www.w3.org/2000/svg" xmlns:xlink="http://www.w3.org/1999/xlink">
    <!-- Generator: Sketch 46.1 (44463) - http://www.bohemiancoding.com/sketch -->
    <title>preferences</title>
    <desc>Created with Sketch.</desc>
    <defs></defs>
    <g id="Page-1" stroke="none" stroke-width="1" fill="none" fill-rule="evenodd">
        <g id="preferences" fill-rule="nonzero" fill="#000000">
            <g id="Group">
                <path d="M2.535,24 C2.534,24 2.534,24 2.533,24 C1.999,24 1.497,23.542 1.12,23.163 C0.743,22.787 0.535,22.16 0.535,21.626 C0.535,21.092 0.743,20.527 1.12,20.149 L7.691,13.547 C7.879,13.359 8.211,13.344 8.398,13.531 L10.519,15.644 C10.714,15.839 10.714,16.152 10.519,16.347 L3.949,23.166 C3.572,23.543 3.069,24 2.535,24 Z M8.045,14.575 L1.828,20.793 C1.639,20.982 1.535,21.233 1.535,21.501 C1.535,21.768 1.639,22.019 1.827,22.207 C2.016,22.396 2.266,22.501 2.533,22.501 C2.533,22.501 2.533,22.501 2.534,22.501 C2.801,22.501 3.052,22.397 3.241,22.207 C3.241,22.207 3.241,22.207 3.241,22.207 L9.458,15.989 L8.045,14.575 Z" id="Shape"></path>
                <path d="M11.227,17.549 C11.099,17.549 10.971,17.5 10.873,17.403 L6.633,13.161 C6.438,12.966 6.438,12.649 6.633,12.454 C6.828,12.259 7.145,12.259 7.34,12.454 L11.58,16.696 C11.775,16.891 11.775,17.208 11.58,17.403 C11.482,17.5 11.354,17.549 11.227,17.549 Z" id="Shape"></path>
                <rect id="Rectangle-path" transform="translate(14.441148, 9.594286) rotate(-45.000000) translate(-14.441148, -9.594286) " x="6.88422097" y="9.0942911" width="15.1138551" height="1"></rect>
                <path d="M20.969,6 C20.837,6 20.71,5.914 20.615,5.82 L18.14,3.33 C18.036,3.226 17.982,3.072 17.995,2.924 C18.008,2.776 18.086,2.638 18.208,2.554 L21.749,0.092 C21.948,-0.047 22.217,-0.023 22.388,0.148 L23.888,1.647 C24.064,1.823 24.084,2.101 23.935,2.3 L21.369,5.767 C21.282,5.883 21.149,6 21.005,6 C20.993,6 20.98,6 20.969,6 Z M19.271,3.029 L20.914,4.671 L22.875,2.048 L21.977,1.15 L19.271,3.029 Z" id="Shape"></path>
            </g>
            <path d="M9.45,12.27 L5.933,8.734 C4.328,9.271 2.549,8.851 1.316,7.617 C0.022,6.323 -0.364,4.31 0.356,2.608 C0.418,2.462 0.544,2.354 0.697,2.317 C0.851,2.279 1.012,2.316 1.134,2.417 L3.06,4 L4,4 L4,3.109 L2.43,1.137 C2.333,1.015 2.298,0.854 2.337,0.702 C2.376,0.55 2.483,0.426 2.627,0.364 C4.32,-0.35 6.397,0.045 7.68,1.325 C8.901,2.545 9.309,4.325 8.762,5.943 L12.279,9.459 L11.572,10.166 L7.826,6.422 C7.682,6.278 7.64,6.062 7.719,5.873 C8.278,4.552 7.985,3.044 6.972,2.032 C6.129,1.19 4.846,0.841 3.666,1.084 L4.891,2.623 C4.961,2.712 5,2.821 5,2.935 L5,4.5 C5,4.776 4.776,5 4.5,5 L2.881,5 C2.765,5 2.653,4.96 2.563,4.886 L1.071,3.659 C0.83,4.823 1.178,6.064 2.023,6.91 C3.05,7.938 4.557,8.243 5.863,7.692 C6.051,7.611 6.27,7.654 6.413,7.8 L10.159,11.565 L9.45,12.27 Z" id="Shape"></path>
            <path d="M19.216,23.859 C18.108,23.859 17.037,23.41 16.172,22.546 C14.951,21.325 14.544,19.545 15.09,17.928 L11.571,14.408 L12.278,13.701 L16.025,17.449 C16.169,17.593 16.212,17.81 16.132,17.998 C15.573,19.318 15.866,20.826 16.879,21.839 C17.699,22.657 18.716,22.999 19.755,22.814 L18.155,21.298 C18.056,21.203 18,21.072 18,20.935 L18,18.5 C18,18.224 18.224,18 18.5,18 L20.881,18 C21.016,18 21.145,18.055 21.239,18.15 L22.8,19.749 C22.985,18.68 22.641,17.593 21.828,16.78 C20.838,15.789 19.33,15.517 17.988,16.087 C17.801,16.167 17.585,16.124 17.44,15.982 L13.695,12.262 L14.4,11.553 L17.916,15.045 C19.552,14.486 21.333,14.871 22.535,16.073 C23.837,17.374 24.205,19.223 23.495,20.901 C23.43,21.054 23.292,21.166 23.127,21.197 C22.962,21.229 22.794,21.174 22.676,21.055 L20.67,19 L19,19 L19,20.72 L21.069,22.681 C21.191,22.797 21.247,22.967 21.217,23.133 C21.187,23.299 21.075,23.439 20.92,23.505 C20.356,23.742 19.781,23.859 19.216,23.859 Z" id="Shape"></path>
        </g>
    </g>
</svg>