<?xml version="1.0" encoding="UTF-8"?>
<svg width="24px" height="24px" viewBox="0 0 24 24" version="1.1" xmlns="http://www.w3.org/2000/svg" xmlns:xlink="http://www.w3.org/1999/xlink">
    <!-- Generator: Sketch 46.2 (44496) - http://www.bohemiancoding.com/sketch -->
    <title>projects</title>
    <desc>Created with Sketch.</desc>
    <defs></defs>
    <g id="Page-1" stroke="none" stroke-width="1" fill="none" fill-rule="evenodd" stroke-linecap="round" stroke-linejoin="round">
        <g id="projects" stroke="#000000">
            <path d="M4.5,4.919 C4.5,5.792 3.792,6.5 2.919,6.5 L2.081,6.5 C1.208,6.5 0.5,5.792 0.5,4.919 L0.5,4.081 C0.5,3.208 1.208,2.5 2.081,2.5 L2.919,2.5 C3.792,2.5 4.5,3.208 4.5,4.081 L4.5,4.919 Z" id="Stroke-129"></path>
            <path d="M4.5,11.919 C4.5,12.792 3.792,13.5 2.919,13.5 L2.081,13.5 C1.208,13.5 0.5,12.792 0.5,11.919 L0.5,11.081 C0.5,10.208 1.208,9.5 2.081,9.5 L2.919,9.5 C3.792,9.5 4.5,10.208 4.5,11.081 L4.5,11.919 Z" id="Stroke-130"></path>
            <path d="M4.5,18.919 C4.5,19.792 3.792,20.5 2.919,20.5 L2.081,20.5 C1.208,20.5 0.5,19.792 0.5,18.919 L0.5,18.081 C0.5,17.208 1.208,16.5 2.081,16.5 L2.919,16.5 C3.792,16.5 4.5,17.208 4.5,18.081 L4.5,18.919 Z" id="Stroke-131"></path>
            <path d="M22.5,4.919 C22.5,5.792 21.792,6.5 20.919,6.5 L9.081,6.5 C8.208,6.5 7.5,5.792 7.5,4.919 L7.5,4.081 C7.5,3.208 8.208,2.5 9.081,2.5 L20.919,2.5 C21.792,2.5 22.5,3.208 22.5,4.081 L22.5,4.919 Z" id="Stroke-132"></path>
            <path d="M22.5,11.919 C22.5,12.792 21.792,13.5 20.919,13.5 L9.081,13.5 C8.208,13.5 7.5,12.792 7.5,11.919 L7.5,11.081 C7.5,10.208 8.208,9.5 9.081,9.5 L20.919,9.5 C21.792,9.5 22.5,10.208 22.5,11.081 L22.5,11.919 Z" id="Stroke-133"></path>
            <path d="M22.5,18.919 C22.5,19.792 21.792,20.5 20.919,20.5 L9.081,20.5 C8.208,20.5 7.5,19.792 7.5,18.919 L7.5,18.081 C7.5,17.208 8.208,16.5 9.081,16.5 L20.919,16.5 C21.792,16.5 22.5,17.208 22.5,18.081 L22.5,18.919 Z" id="Stroke-134"></path>
        </g>
    </g>
</svg>