<?xml version="1.0" encoding="utf-8"?>
<!-- Generator: Adobe Illustrator 24.1.2, SVG Export Plug-In . SVG Version: 6.00 Build 0)  -->
<svg version="1.1" id="Layer_1" xmlns="http://www.w3.org/2000/svg" xmlns:xlink="http://www.w3.org/1999/xlink" x="0px" y="0px"
	 viewBox="0 0 24 24" style="enable-background:new 0 0 24 24;" xml:space="preserve">
<g>
	<path d="M21.5,22h-19C2.2,22,2,21.8,2,21.5S2.2,21,2.5,21h19c0.3,0,0.5,0.2,0.5,0.5S21.8,22,21.5,22z"/>
</g>
<g>
	<path d="M5.8,22H3.3c-0.3,0-0.5-0.2-0.5-0.5v-4.1c0-0.3,0.2-0.5,0.5-0.5h2.5c0.3,0,0.5,0.2,0.5,0.5v4.1C6.3,21.8,6.1,22,5.8,22z
		 M3.8,21h1.5v-3.1H3.8V21z"/>
</g>
<g>
	<path d="M10.8,22H8.3c-0.3,0-0.5-0.2-0.5-0.5v-8.3c0-0.3,0.2-0.5,0.5-0.5h2.5c0.3,0,0.5,0.2,0.5,0.5v8.3C11.3,21.8,11,22,10.8,22z
		 M8.8,21h1.5v-7.3H8.8V21z"/>
</g>
<g>
	<path d="M15.7,22h-2.5c-0.3,0-0.5-0.2-0.5-0.5v-6.6c0-0.3,0.2-0.5,0.5-0.5h2.5c0.3,0,0.5,0.2,0.5,0.5v6.6C16.2,21.8,16,22,15.7,22z
		 M13.7,21h1.5v-5.6h-1.5V21z"/>
</g>
<g>
	<path d="M20.7,22h-2.5c-0.3,0-0.5-0.2-0.5-0.5V9.1c0-0.3,0.2-0.5,0.5-0.5h2.5c0.3,0,0.5,0.2,0.5,0.5v12.4C21.2,21.8,21,22,20.7,22z
		 M18.7,21h1.5V9.6h-1.5V21z"/>
</g>
<g>
	<path d="M4.6,12.9c-0.7,0-1.3-0.6-1.3-1.3s0.6-1.3,1.3-1.3s1.3,0.6,1.3,1.3S5.3,12.9,4.6,12.9z M4.6,11.3c-0.2,0-0.3,0.1-0.3,0.3
		s0.1,0.3,0.3,0.3s0.3-0.1,0.3-0.3S4.7,11.3,4.6,11.3z"/>
</g>
<g>
	<path d="M9.5,8.8c-0.7,0-1.3-0.6-1.3-1.3s0.6-1.3,1.3-1.3s1.3,0.6,1.3,1.3S10.3,8.8,9.5,8.8z M9.5,7.1c-0.2,0-0.3,0.1-0.3,0.3
		s0.1,0.3,0.3,0.3s0.3-0.1,0.3-0.3S9.7,7.1,9.5,7.1z"/>
</g>
<g>
	<path d="M14.5,10.4c-0.7,0-1.3-0.6-1.3-1.3c0-0.7,0.6-1.3,1.3-1.3s1.3,0.6,1.3,1.3C15.8,9.8,15.2,10.4,14.5,10.4z M14.5,8.8
		c-0.2,0-0.3,0.1-0.3,0.3s0.1,0.3,0.3,0.3s0.3-0.1,0.3-0.3S14.7,8.8,14.5,8.8z"/>
</g>
<g>
	<path d="M19.4,4.7c-0.7,0-1.3-0.6-1.3-1.3S18.7,2,19.4,2s1.3,0.6,1.3,1.3S20.2,4.7,19.4,4.7z M19.4,3c-0.2,0-0.3,0.1-0.3,0.3
		s0.1,0.3,0.3,0.3s0.3-0.1,0.3-0.3S19.6,3,19.4,3z"/>
</g>
<g>
	<path d="M5.2,11.6c-0.1,0-0.3-0.1-0.4-0.2c-0.2-0.2-0.2-0.5,0.1-0.7l3.6-3.1c0.2-0.2,0.5-0.2,0.7,0.1c0.2,0.2,0.2,0.5-0.1,0.7
		l-3.6,3.1C5.5,11.6,5.3,11.6,5.2,11.6z"/>
</g>
<g>
	<path d="M13.7,9.4c-0.1,0-0.1,0-0.2,0l-3.5-1.2C9.8,8.1,9.7,7.8,9.8,7.5c0.1-0.3,0.4-0.4,0.6-0.3l3.5,1.2c0.3,0.1,0.4,0.4,0.3,0.6
		C14.1,9.2,13.9,9.4,13.7,9.4z"/>
</g>
<g>
	<path d="M15.1,8.9c-0.1,0-0.2,0-0.3-0.1c-0.2-0.2-0.2-0.5-0.1-0.7l3.8-4.5c0.2-0.2,0.5-0.2,0.7-0.1c0.2,0.2,0.2,0.5,0.1,0.7
		l-3.8,4.5C15.3,8.9,15.2,8.9,15.1,8.9z"/>
</g>
</svg>
