<svg id="Layer_1" data-name="Layer 1" xmlns="http://www.w3.org/2000/svg" width="24" height="24" viewBox="0 0 24 24"><defs><style>.cls-1{fill:#080736;}</style></defs><path class="cls-1" d="M18.48,7l-.67-.21c0-.15.07-.31.11-.46.5-2.46.17-4.44-1-5.09s-2.85,0-4.65,1.59c-.17.15-.35.31-.51.47L11.46,3C9.58,1.29,7.7.58,6.57,1.24s-1.41,2.49-1,4.82q.06.35.15.69c-.26.07-.52.15-.77.24-2.2.76-3.78,2-3.78,3.22s1.68,2.58,4,3.36l.56.18c-.06.25-.11.49-.16.74-.43,2.29-.1,4.11,1,4.73s3,0,4.81-1.61l.43-.4c.18.18.37.34.56.51,1.77,1.52,3.52,2.13,4.6,1.51s1.47-2.6,1-5c0-.19-.08-.37-.12-.56l.39-.12c2.38-.79,4.1-2.06,4.1-3.37S20.73,7.74,18.48,7ZM12.9,3.47c1.53-1.34,3-1.87,3.62-1.49s1,2,.53,4.14c0,.14-.06.28-.1.42a20.1,20.1,0,0,0-2.78-.44,19.39,19.39,0,0,0-1.76-2.19C12.57,3.75,12.73,3.61,12.9,3.47ZM8.12,12.35c.21.36.43.72.65,1.07-.64-.07-1.28-.18-1.91-.31.18-.6.41-1.21.67-1.84.19.36.38.72.59,1.08Zm-1.25-5c.59-.13,1.23-.24,1.88-.32q-.33.51-.63,1c-.21.35-.4.71-.59,1.07a18,18,0,0,1-.66-1.8ZM8,10.23c.27-.57.57-1.13.88-1.68s.66-1.08,1-1.6c.62,0,1.25-.07,1.9-.07s1.28,0,1.89.07c.35.52.69,1,1,1.59s.62,1.11.9,1.67c-.28.57-.57,1.13-.89,1.68S14,13,13.69,13.5c-.62.05-1.26.07-1.9.07s-1.28,0-1.89-.06c-.36-.52-.69-1.06-1-1.61S8.28,10.8,8,10.23Zm7.46,2.11c.21-.36.4-.73.6-1.1.26.6.49,1.2.7,1.83-.64.14-1.29.25-1.94.33.22-.35.43-.7.64-1.06Zm.59-3.16q-.29-.54-.6-1.08c-.2-.35-.41-.7-.63-1a17.87,17.87,0,0,1,1.9.33A18.27,18.27,0,0,1,16.05,9.18ZM11.79,4.54A15.82,15.82,0,0,1,13,6Q11.79,6,10.56,6A18.93,18.93,0,0,1,11.79,4.54ZM7,2c.69-.41,2.23.17,3.85,1.61l.32.29A20.76,20.76,0,0,0,9.4,6.1a21.83,21.83,0,0,0-2.77.43c0-.21-.1-.43-.14-.64C6.1,3.89,6.35,2.38,7,2ZM6,12.89l-.51-.16a8.55,8.55,0,0,1-2.6-1.29,1.8,1.8,0,0,1-.77-1.23c0-.76,1.3-1.72,3.18-2.38L6,7.6a22,22,0,0,0,1,2.63A22.51,22.51,0,0,0,6,12.89Zm4.82,4.05a7.61,7.61,0,0,1-2.33,1.45A1.85,1.85,0,0,1,7,18.45c-.65-.38-.93-1.84-.56-3.8,0-.23.1-.46.16-.69a20.3,20.3,0,0,0,2.8.4,22.34,22.34,0,0,0,1.78,2.21l-.39.37Zm1-1a19.46,19.46,0,0,1-1.25-1.5c.39,0,.8,0,1.22,0s.84,0,1.25,0C12.66,15,12.25,15.45,11.82,15.93Zm5.39,1.24a1.8,1.8,0,0,1-.68,1.29c-.65.38-2.05-.11-3.56-1.41l-.53-.47a19.54,19.54,0,0,0,1.74-2.22A19.21,19.21,0,0,0,17,13.93c0,.17.08.34.11.5a7.42,7.42,0,0,1,.1,2.74ZM18,12.73l-.36.11a19.22,19.22,0,0,0-1.05-2.63,20.55,20.55,0,0,0,1-2.6l.62.19c1.93.66,3.28,1.65,3.28,2.4S20,12.05,18,12.73Zm-6.18-.62A1.89,1.89,0,1,0,9.9,10.22a1.89,1.89,0,0,0,1.89,1.89ZM2.28,21.83a.9.9,0,0,0,.61-.9.94.94,0,0,0-1-1H.6v3.16h.49V21.91h.69l.64,1.21H3Zm-.49-.34h-.7v-1.1h.69a.54.54,0,0,1,.61.55A.53.53,0,0,1,1.79,21.49Zm3.39.56v-.16c0-.75-.4-1.21-1.07-1.21A1.11,1.11,0,0,0,3,21.93a1.09,1.09,0,0,0,1.11,1.23,1,1,0,0,0,1-.69H4.7a.58.58,0,0,1-.57.29.63.63,0,0,1-.64-.68v0Zm-1.07-1a.57.57,0,0,1,.59.61H3.49A.61.61,0,0,1,4.11,21.09Zm2.23-.41c-.54,0-.93.27-1,.68h.46c0-.17.23-.27.5-.27s.48.15.48.4v.2l-.64,0c-.57,0-.89.28-.89.71a.73.73,0,0,0,.8.72.79.79,0,0,0,.71-.38h0v.34h.45V21.49C7.27,21,6.93,20.68,6.34,20.68Zm.46,1.56a.56.56,0,0,1-.61.52c-.26,0-.45-.13-.45-.34s.15-.32.48-.34l.58,0Zm2.37-.73a.54.54,0,0,0-.57-.4c-.39,0-.63.3-.63.81s.24.82.63.82a.52.52,0,0,0,.57-.39h.46a.94.94,0,0,1-1,.81,1.09,1.09,0,0,1-1.12-1.24A1.09,1.09,0,0,1,8.6,20.68a1,1,0,0,1,1,.83Zm1.33-1.37v.6H11v.4H10.5v1.23c0,.24.1.35.34.35H11v.39a1,1,0,0,1-.25,0c-.52,0-.73-.18-.73-.64V21.14H9.65v-.4H10v-.6Zm1.68,3V20h.44l1.62,2.24h0V20h.47v3.16h-.44l-1.62-2.25h0v2.25Zm3.91-2.44c-.54,0-.93.27-1,.68h.46c0-.17.23-.27.5-.27s.48.15.48.4v.2l-.64,0c-.57,0-.89.28-.89.71a.73.73,0,0,0,.8.72.79.79,0,0,0,.71-.38h0v.34H17V21.49C17,21,16.69,20.68,16.09,20.68Zm.46,1.56a.56.56,0,0,1-.61.52c-.26,0-.45-.13-.45-.34s.15-.32.48-.34l.58,0ZM18,20.14v.6h.52v.4H18v1.23c0,.24.11.35.34.35h.18v.39a1,1,0,0,1-.26,0c-.52,0-.73-.18-.73-.64V21.14h-.38v-.4h.38v-.6Zm.68-.11a.31.31,0,1,1,.3.28A.29.29,0,0,1,18.67,20Zm.07.7h.47v2.39h-.47Zm2,2.39h-.5l-.86-2.39h.5l.59,1.88h0l.59-1.88h.5Zm3-1.07v-.16a1.06,1.06,0,0,0-1.07-1.21,1.11,1.11,0,0,0-1.1,1.25,1.08,1.08,0,0,0,1.1,1.23,1,1,0,0,0,1-.69h-.46a.55.55,0,0,1-.56.29.63.63,0,0,1-.64-.68v0Zm-1.07-1a.58.58,0,0,1,.59.61H22A.61.61,0,0,1,22.61,21.09Z"/></svg>