<svg id="Layer_1" data-name="Layer 1" xmlns="http://www.w3.org/2000/svg" width="24" height="24" viewBox="0 0 24 24"><defs><style>.cls-1{fill:#080736;}</style></defs><path class="cls-1" d="M11.85,19.86a.46.46,0,0,1-.22-.06l-.71-.42c-.1-.06-.05-.08,0-.09a1.3,1.3,0,0,0,.32-.15s0,0,.06,0l.54.33a.09.09,0,0,0,.07,0L14,18.24a.07.07,0,0,0,0-.06V15.73a.05.05,0,0,0,0-.06l-2.12-1.23h-.07L9.69,15.67a.06.06,0,0,0,0,.06v2.45s0,0,0,.06l.59.33c.31.16.51,0,.51-.21V15.93a.06.06,0,0,1,.06-.06h.27a.06.06,0,0,1,.06.06v2.43a.59.59,0,0,1-.63.66.93.93,0,0,1-.49-.13l-.56-.32a.47.47,0,0,1-.22-.39V15.73a.44.44,0,0,1,.22-.39l2.13-1.23a.43.43,0,0,1,.44,0l2.13,1.23a.45.45,0,0,1,.23.39v2.45a.45.45,0,0,1-.23.39L12.07,19.8a.4.4,0,0,1-.22.06Zm1.72-2.42c0-.46-.31-.58-1-.67s-.73-.13-.73-.29,0-.3.54-.3.6.1.67.39a.06.06,0,0,0,.06.05h.27l.05,0a0,0,0,0,0,0-.05c0-.5-.38-.74-1.06-.74s-1,.26-1,.69.36.59.94.65.75.17.75.3-.19.34-.64.34-.69-.14-.73-.42a.06.06,0,0,0-.06-.05h-.28a.06.06,0,0,0-.06.06c0,.36.19.79,1.12.79.69,0,1.07-.27,1.07-.73Zm2-1.85a.41.41,0,0,1-.41.41.41.41,0,1,1,0-.81A.4.4,0,0,1,15.58,15.59Zm-.07,0a.34.34,0,0,0-.35-.34.35.35,0,0,0,0,.69A.35.35,0,0,0,15.51,15.59Zm-.16.23h-.1s0-.14,0-.14,0,0-.05,0H15.1v.18H15v-.46h.16c.06,0,.16,0,.16.12a.11.11,0,0,1-.08.12c.06,0,.06,0,.07.1s0,.1,0,.12Zm-.11-.32c0-.06,0-.06-.06-.06H15.1v.12h.07C15.23,15.56,15.24,15.52,15.24,15.5Zm-10-5.24A.27.27,0,0,0,5.13,10L2.88,8.72a.28.28,0,0,0-.13,0h0l-.13,0L.35,10a.28.28,0,0,0-.13.24v3.49a.15.15,0,0,0,.07.12.15.15,0,0,0,.13,0l1.34-.77a.27.27,0,0,0,.14-.24V11.23A.26.26,0,0,1,2,11l.57-.33a.25.25,0,0,1,.14,0,.23.23,0,0,1,.14,0l.57.33a.26.26,0,0,1,.13.23v1.63a.27.27,0,0,0,.14.24l1.34.77a.15.15,0,0,0,.13,0,.12.12,0,0,0,.07-.12V10.26ZM17.6,6.44v6.49a.27.27,0,0,1-.14.24l-2.25,1.3a.26.26,0,0,1-.27,0l-2.26-1.3a.28.28,0,0,1-.13-.24v-2.6a.28.28,0,0,1,.13-.24l2.26-1.3a.26.26,0,0,1,.27,0l.56.32A.1.1,0,0,0,15.92,9V5.57a.13.13,0,0,1,.2-.11l1.34.75a.24.24,0,0,1,.14.23Zm-1.69,4.74s0,0,0-.06l-.77-.44a0,0,0,0,0-.07,0l-.77.44a.09.09,0,0,0,0,.06v.9a.07.07,0,0,0,0,.06l.77.44h.07l.77-.44a.07.07,0,0,0,0-.06v-.9Zm7.72,0a.28.28,0,0,0,.13-.24v-.63a.28.28,0,0,0-.13-.23l-2.24-1.3a.28.28,0,0,0-.28,0l-2.25,1.3a.27.27,0,0,0-.14.23V12.9a.24.24,0,0,0,.14.23l2.24,1.28a.26.26,0,0,0,.27,0l1.35-.75a.14.14,0,0,0,0-.24l-2.27-1.3a.15.15,0,0,1-.07-.12v-.82a.14.14,0,0,1,.07-.11l.71-.41a.11.11,0,0,1,.13,0l.71.41a.14.14,0,0,1,.07.11v.64a.14.14,0,0,0,.21.12l1.35-.78Zm-2.85.13a.05.05,0,0,0,0,0v.5s0,0,0,0l.44.26h.05l.43-.26s0,0,0,0v-.5s0,0,0,0L21.27,11h-.05Zm-9.35,1.6V10.3a.29.29,0,0,0-.14-.24L9,8.77a.24.24,0,0,0-.27,0L6.52,10.06a.27.27,0,0,0-.14.24v2.59a.28.28,0,0,0,.14.23l2.25,1.3a.31.31,0,0,0,.28,0l2.24-1.3a.25.25,0,0,0,.13-.17.13.13,0,0,0,0-.06ZM8.7,8.29l0,0h0Zm2.8,4.79v0Z"/></svg>