<svg id="Layer_1" data-name="Layer 1" xmlns="http://www.w3.org/2000/svg" width="24" height="24" viewBox="0 0 24 24"><defs><style>.cls-1{fill:#080736;}</style></defs><path class="cls-1" d="M18.94,14.38A9.78,9.78,0,0,1,18,16.06a8,8,0,0,1-1.21,1.45,2.27,2.27,0,0,1-1.54.69,3.94,3.94,0,0,1-1.43-.34,4.06,4.06,0,0,0-1.54-.34,4.31,4.31,0,0,0-1.58.34,4.15,4.15,0,0,1-1.37.36,2.21,2.21,0,0,1-1.59-.7A8.48,8.48,0,0,1,6.5,16a10.14,10.14,0,0,1-1.33-2.65,10,10,0,0,1-.57-3.15,5.91,5.91,0,0,1,.77-3A4.51,4.51,0,0,1,7,5.56,4.28,4.28,0,0,1,9.11,5a5,5,0,0,1,1.66.38,5,5,0,0,0,1.32.39,8.22,8.22,0,0,0,1.46-.45,4.85,4.85,0,0,1,2-.36,4.17,4.17,0,0,1,3.25,1.76A3.84,3.84,0,0,0,18,12.78a4.08,4.08,0,0,0,1.21.77,8.21,8.21,0,0,1-.31.77ZM15.58,1.15a3.79,3.79,0,0,1-1,2.44,3.27,3.27,0,0,1-2.69,1.33,1.82,1.82,0,0,1,0-.33,3.89,3.89,0,0,1,1-2.47,4,4,0,0,1,1.24-.92A3.77,3.77,0,0,1,15.56.8a2,2,0,0,1,0,.35ZM3.81,20.76a1.46,1.46,0,0,1-1.47,1.66A1.46,1.46,0,0,1,.86,20.76,1.47,1.47,0,0,1,2.34,19.1,1.46,1.46,0,0,1,3.81,20.76Zm-2.45,0c0,.73.37,1.2,1,1.2s1-.47,1-1.2-.37-1.2-1-1.2S1.36,20,1.36,20.76ZM4.6,22h0v.38H4.11V19h.47v1.31h0a.8.8,0,0,1,.73-.42c.61,0,1,.48,1,1.24s-.38,1.23-1,1.23A.82.82,0,0,1,4.6,22Zm0-.82c0,.5.25.81.65.81s.64-.3.64-.81-.24-.81-.64-.81S4.57,20.65,4.57,21.15Zm2.48,1.29c0,.49-.25.72-.77.72H6.17v-.39h.07c.25,0,.34-.1.34-.33V20h.47Zm-.54-3.19a.31.31,0,0,1,.61,0,.28.28,0,0,1-.3.28A.29.29,0,0,1,6.51,19.25ZM9.43,21.7a1,1,0,0,1-1,.69,1.08,1.08,0,0,1-1.1-1.23,1.1,1.1,0,0,1,1.1-1.25c.67,0,1.07.45,1.07,1.2v.17H7.77v0a.64.64,0,0,0,.64.69A.58.58,0,0,0,9,21.7Zm-1.66-.77H9a.58.58,0,0,0-.59-.62A.61.61,0,0,0,7.77,20.93Zm3.49-.19a.54.54,0,0,0-.57-.41c-.39,0-.64.3-.64.81s.25.83.64.83a.53.53,0,0,0,.57-.39h.46a1,1,0,0,1-1,.81,1.1,1.1,0,0,1-1.12-1.25,1.09,1.09,0,0,1,1.12-1.23,1,1,0,0,1,1,.83Zm1.33-1.38V20h.52v.4h-.52v1.23c0,.25.1.36.34.36h.18v.39a1.09,1.09,0,0,1-.26,0c-.52,0-.73-.19-.73-.65V20.36h-.38V20h.38v-.6Zm.68-.11a.31.31,0,1,1,.3.28A.29.29,0,0,1,13.27,19.25Zm.07.7h.47v2.4h-.47Zm2,2.4h-.51L14,20h.5l.6,1.89h0l.6-1.89h.5Zm2.93-.65a1,1,0,0,1-1,.69,1.08,1.08,0,0,1-1.1-1.23,1.1,1.1,0,0,1,1.1-1.25c.67,0,1.07.45,1.07,1.2v.17H16.6v0a.64.64,0,0,0,.64.69.58.58,0,0,0,.57-.29Zm-1.66-.77h1.21a.58.58,0,0,0-.59-.62A.61.61,0,0,0,16.6,20.93Zm1.93.37v-.46H20v.46Zm1.72-.54c0-1,.55-1.66,1.43-1.66A1.27,1.27,0,0,1,23,20.2h-.49a.83.83,0,0,0-.83-.64c-.57,0-.93.46-.93,1.2s.36,1.2.93,1.2a.8.8,0,0,0,.83-.58H23a1.24,1.24,0,0,1-1.32,1C20.8,22.42,20.25,21.79,20.25,20.76Z"/></svg>