<svg id="Layer_1" data-name="Layer 1" xmlns="http://www.w3.org/2000/svg" width="24" height="24" viewBox="0 0 24 24"><defs><style>.cls-1{fill:#080736;}</style></defs><path class="cls-1" d="M15.65,14.57A8.2,8.2,0,0,1,16.72,14s-1.77.32-3.53.47a32.79,32.79,0,0,1-5.65.06c-2.75-.37,1.52-1.38,1.52-1.38a8.14,8.14,0,0,0-3.7.87C3,15.18,11.32,15.72,15.65,14.57ZM11.74,13.1c-.87-1.95-3.81-3.67,0-6.68C16.49,2.67,14.05.23,14.05.23,15,4.11,10.59,5.28,9,7.69,7.88,9.33,9.51,11.1,11.74,13.1ZM17,5S9,7,12.8,11.45a1.72,1.72,0,0,1-.3,2.48s2.87-1.49,1.55-3.34S11.87,8,17,5Zm-.28,12.39-.09.12c5.88-1.54,3.71-5.44.91-4.46a.79.79,0,0,0-.38.29,2.83,2.83,0,0,1,.5-.13c1.42-.3,3.46,1.9-.94,4.18Zm2.16,2.86s.67.55-.73,1c-2.65.8-11,1.05-13.36,0-.84-.36.73-.87,1.23-1a3.24,3.24,0,0,1,.81-.09c-.93-.66-6,1.28-2.59,1.84C13.59,23.58,21.3,21.38,18.87,20.28ZM8.63,18.38c-3.61,1,2.19,3.09,6.78,1.13a8.6,8.6,0,0,1-1.29-.64,13.44,13.44,0,0,1-4.86.21C7.73,18.91,8.63,18.38,8.63,18.38Zm8.24,4.46A34.58,34.58,0,0,1,6.17,23s.54.45,3.32.63c4.23.27,10.72-.16,10.87-2.15,0,0-.3.75-3.49,1.36Zm-2-6.43a18.9,18.9,0,0,1-6.27.3c-1.54-.16-.53-.9-.53-.9-4,1.32,2.21,2.82,7.76,1.19A2.9,2.9,0,0,1,14.87,16.41Z"/></svg>