<svg id="Layer_1" data-name="Layer 1" xmlns="http://www.w3.org/2000/svg" width="24" height="24" viewBox="0 0 24 24"><defs><style>.cls-1{fill:#080736;}</style></defs><path class="cls-1" d="M19.47,8.47l-.75-.23.12-.51C19.4,5,19,2.79,17.78,2.06s-3.18,0-5.18,1.77c-.19.17-.39.35-.57.53L11.65,4C9.56,2.15,7.47,1.37,6.21,2.1s-1.56,2.76-1,5.36c0,.25.1.5.16.76-.29.08-.58.18-.85.27C2,9.34.26,10.68.26,12.07s1.87,2.87,4.42,3.74l.63.2c-.07.28-.13.55-.19.83-.48,2.55-.1,4.57,1.1,5.26s3.33,0,5.36-1.79c.16-.15.32-.29.48-.45.2.2.41.39.62.57,2,1.69,3.91,2.37,5.11,1.68s1.64-2.89,1.12-5.53c0-.21-.09-.41-.14-.62l.43-.14c2.65-.87,4.57-2.29,4.57-3.75S22,9.33,19.47,8.47Zm-6.22-3.9c1.71-1.49,3.3-2.07,4-1.65s1.07,2.24.59,4.61c0,.15-.07.31-.11.46a23.1,23.1,0,0,0-3.09-.49,24.06,24.06,0,0,0-2-2.44ZM7.94,14.45c.23.4.47.8.72,1.19a19.65,19.65,0,0,1-2.13-.34,21.25,21.25,0,0,1,.75-2c.21.4.43.8.66,1.19ZM6.55,8.93a21.12,21.12,0,0,1,2.09-.36c-.24.38-.48.77-.71,1.17s-.44.79-.65,1.19a20.35,20.35,0,0,1-.73-2ZM7.8,12.09q.46-.94,1-1.86c.35-.61.72-1.2,1.12-1.79.69,0,1.39-.08,2.11-.08s1.42,0,2.1.08c.39.58.77,1.17,1.12,1.78s.68,1.23,1,1.86c-.31.63-.64,1.25-1,1.87s-.72,1.2-1.11,1.79c-.68,0-1.39.07-2.11.07s-1.42,0-2.1-.06c-.4-.58-.77-1.18-1.13-1.79s-.68-1.23-1-1.87Zm8.3,2.35c.23-.4.45-.81.67-1.22.29.66.55,1.34.78,2a20.32,20.32,0,0,1-2.16.37c.25-.39.48-.78.71-1.18Zm.66-3.51c-.22-.4-.44-.81-.67-1.2s-.45-.78-.7-1.16a21,21,0,0,1,2.11.37A19.77,19.77,0,0,1,16.76,10.93ZM12,5.77a19.27,19.27,0,0,1,1.35,1.64c-.9,0-1.82,0-2.73,0C11.1,6.82,11.57,6.27,12,5.77ZM6.7,3c.77-.45,2.48.19,4.29,1.79l.35.32a22.85,22.85,0,0,0-2,2.44A23.08,23.08,0,0,0,6.28,8c-.06-.24-.11-.47-.16-.71C5.69,5,6,3.37,6.7,3ZM5.57,15.06,5,14.88a9.43,9.43,0,0,1-2.89-1.44,2,2,0,0,1-.86-1.37c0-.84,1.45-1.91,3.54-2.64.26-.1.53-.18.8-.26a24.44,24.44,0,0,0,1.12,2.92A26,26,0,0,0,5.57,15.06Zm5.36,4.5a8.62,8.62,0,0,1-2.59,1.62,2.07,2.07,0,0,1-1.62.06c-.73-.43-1-2-.62-4.23.05-.25.1-.51.17-.76a23.3,23.3,0,0,0,3.11.45,26,26,0,0,0,2,2.45l-.44.41Zm1.12-1.12a20.16,20.16,0,0,1-1.39-1.67c.44,0,.9,0,1.36,0s.93,0,1.39,0A18,18,0,0,1,12.05,18.44Zm6,1.38a2.1,2.1,0,0,1-.76,1.44c-.73.42-2.29-.13-4-1.57l-.58-.53a22.69,22.69,0,0,0,1.93-2.46,22.28,22.28,0,0,0,3.14-.49l.12.56a8.45,8.45,0,0,1,.12,3.05Zm.83-4.94L18.5,15a23.85,23.85,0,0,0-1.17-2.93,24.72,24.72,0,0,0,1.13-2.89l.68.22c2.14.73,3.65,1.83,3.65,2.66S21.18,14.12,18.89,14.88ZM12,14.19a2.1,2.1,0,1,0-2.11-2.1A2.1,2.1,0,0,0,12,14.19Z"/></svg>