<svg id="Layer_1" data-name="Layer 1" xmlns="http://www.w3.org/2000/svg" width="24" height="24" viewBox="0 0 24 24"><defs><style>.cls-1{fill:#080736;}</style></defs><path class="cls-1" d="M12,6.42c6.35,0,11.23,2.68,11.23,5.62S18.33,17.65,12,17.65.76,15,.76,12,5.64,6.42,12,6.42m0-.62C5.45,5.8.14,8.59.14,12S5.45,18.27,12,18.27,23.84,15.48,23.84,12,18.53,5.8,12,5.8ZM8.22,11.54c-.29,1.5-1.33,1.34-2.6,1.34l.51-2.62c1.41,0,2.36-.15,2.09,1.28Zm-4.47,4H5.1l.33-1.66c1.52,0,2.46.11,3.34-.71A2.55,2.55,0,0,0,9.3,9.9a2.16,2.16,0,0,0-1.73-.62H5Zm6.87-7.91H12l-.32,1.66c1.17,0,2.25-.09,2.77.39s.29,1.15-.31,4.19H12.74c.57-2.94.68-3.18.47-3.41s-.65-.17-1.75-.17l-.7,3.58H9.41l1.21-6.24Zm8.22,3.92c-.3,1.52-1.36,1.34-2.6,1.34l.51-2.62c1.42,0,2.36-.15,2.09,1.28Zm-4.47,4h1.36l.32-1.66c1.6,0,2.49.09,3.34-.71a2.53,2.53,0,0,0,.53-3.26,2.15,2.15,0,0,0-1.72-.62H15.58Z"/></svg>