<svg id="Layer_1" data-name="Layer 1" xmlns="http://www.w3.org/2000/svg" width="24" height="24" viewBox="0 0 24 24">
    <defs>
        <style>.cls-1{fill:#080736;}</style>
    </defs>
    <path class="cls-1"
          d="M15.9,12a1.79,1.79,0,0,1-1.53-.86L12,7.21,9.63,11.14A1.78,1.78,0,0,1,8.11,12a1.57,1.57,0,0,1-.49-.07L2.57,10.49v6.56a1.18,1.18,0,0,0,.89,1.14l8,2a2.44,2.44,0,0,0,1.14,0l8-2a1.17,1.17,0,0,0,.89-1.14V10.49l-5,1.44A1.66,1.66,0,0,1,15.9,12Zm7.83-4.13-1.9-3.79a.6.6,0,0,0-.61-.33L12,4.93l3.38,5.6a.61.61,0,0,0,.68.27l7.29-2.08a.6.6,0,0,0,.38-.85ZM2.17,4.08.27,7.87a.59.59,0,0,0,.37.84l7.3,2.09a.61.61,0,0,0,.68-.27L12,4.93,2.78,3.75A.6.6,0,0,0,2.17,4.08Z"/>
</svg>
