<svg id="Layer_1" data-name="Layer 1" xmlns="http://www.w3.org/2000/svg" width="24" height="24" viewBox="0 0 24 24"><defs><style>.cls-1{fill:#080736;}</style></defs><path class="cls-1" d="M23.35,9.08c-.41-1.62-1.17-2.85-2.81-2.85H18.43V8.72a3.61,3.61,0,0,1-3.51,3.57H9.3a2.87,2.87,0,0,0-2.81,2.85V20.5c0,1.52,1.33,2.42,2.81,2.85a9.43,9.43,0,0,0,5.62,0c1.41-.41,2.81-1.23,2.81-2.85V18.36H12.12v-.72h8.42c1.64,0,2.24-1.14,2.81-2.85a9.63,9.63,0,0,0,0-5.71Zm-8.08,10.7a1.07,1.07,0,1,1-1.06,1.07A1.07,1.07,0,0,1,15.27,19.78ZM9,11.58h5.62a2.83,2.83,0,0,0,2.81-2.85V3.37A3.12,3.12,0,0,0,14.66.45,17.36,17.36,0,0,0,9,.45c-2.37.42-2.8,1.3-2.8,2.92V5.52h5.62v.71H4.13A3.51,3.51,0,0,0,.61,9.08a10.64,10.64,0,0,0,0,5.71c.4,1.66,1.36,2.85,3,2.85H5.53V15.08A3.58,3.58,0,0,1,9,11.58Zm-.35-7.5A1.06,1.06,0,0,1,7.63,3,1.06,1.06,0,1,1,9.75,3,1.05,1.05,0,0,1,8.69,4.08Z"/></svg>