<svg id="Layer_1" data-name="Layer 1" xmlns="http://www.w3.org/2000/svg" width="24" height="24" viewBox="0 0 24 24"><defs><style>.cls-1{fill:#080736;}</style></defs><path class="cls-1" d="M2.7,11.27,4.85,7.58a.39.39,0,0,1,.08-.1L8.79,3.89a.42.42,0,0,1,.14-.09l3.32-1.22,2.79,2L13.65,9,8.43,13.81l-4.26.95Zm1.78,4.3,2,5.68L8.1,14.76Zm15-12.92L16.29,4.4l5.22,3.79a11.27,11.27,0,0,0,.26-1.72v0a4.37,4.37,0,0,0-.55-2.38,3.49,3.49,0,0,0-1.76-1.43S19.45,2.64,19.44,2.65ZM16,16.55,13.83,10,9.45,14ZM14.61,9.62l2.15,6.55a20.37,20.37,0,0,0,4.37-6.7Zm6.06-1-4.9-3.56L14.6,8.77ZM3.82,16.28l-1.45,2.5a3.57,3.57,0,0,0,3.36,2.95Zm-.37-1.05-1.22-2.9v5ZM18.35,2.28H13.29l2.25,1.57ZM9,14.75,7.23,21.67a15.94,15.94,0,0,0,8.36-4.36Zm11.34,6.08a.38.38,0,0,1-.28-.11L16.52,17.6A20.3,20.3,0,0,1,11,21.47l9.37-.63a.37.37,0,0,0,.15,0A.41.41,0,0,1,20.31,20.83ZM17.13,17l3.47,3.08a.37.37,0,0,1,.12.24L21.44,11A23.06,23.06,0,0,1,17.13,17Z"/></svg>