<svg id="Layer_1" data-name="Layer 1" xmlns="http://www.w3.org/2000/svg" width="24" height="24" viewBox="0 0 24 24"><defs><style>.cls-1{fill:#080736;}</style></defs><path class="cls-1" d="M18.87,11.61h.84v.84h-.84Zm3.64-4.46,0-.05v9.74a2.08,2.08,0,0,1-.25,1,1.94,1.94,0,0,1-.77.76l-8.4,4.84a2,2,0,0,1-2.23,0c-1.05-.65-6.66-3.85-8.33-4.82a1.94,1.94,0,0,1-.77-.76,2.05,2.05,0,0,1-.25-1V7.13a2,2,0,0,1,1-1.79c1.64-1,7.21-4.17,8.33-4.82a2,2,0,0,1,2.23,0l8.4,4.85a2,2,0,0,1,.76.74A2.17,2.17,0,0,1,22.51,7.15Zm-4.44,8.33-3-1.76a3.47,3.47,0,1,1,0-3.45l3-1.75a7,7,0,1,0,0,7ZM21,10.92H20.4v-.56h-.69v.56h-.84v-.56h-.69v.56h-.56v.69h.56v.84h-.57v.69h.57v.57h.69v-.57h.84v.57h.69v-.57H21v-.69H20.4v-.84H21Z"/></svg>