<svg id="Layer_1" data-name="Layer 1" xmlns="http://www.w3.org/2000/svg" width="24" height="24" viewBox="0 0 24 24"><defs><style>.cls-1{fill:#080736;}</style></defs><path class="cls-1" d="M22.94,7.09c0-.22,0-.44,0-.66A10,10,0,0,0,22.8,5a4.69,4.69,0,0,0-.45-1.37,4.64,4.64,0,0,0-2-2A4.88,4.88,0,0,0,19,1.13,8.75,8.75,0,0,0,17.51,1H6a7.89,7.89,0,0,0-1.09.11,6.47,6.47,0,0,0-1,.3l-.33.16a4.22,4.22,0,0,0-.91.6,3.07,3.07,0,0,0-.26.25,4.71,4.71,0,0,0-.86,1.17A5,5,0,0,0,1.07,5,8.78,8.78,0,0,0,1,6.43c0,.22,0,.44,0,.66V16.9c0,.23,0,.45,0,.67A10,10,0,0,0,1.07,19a5.21,5.21,0,0,0,.46,1.38,4.64,4.64,0,0,0,2,2,4.69,4.69,0,0,0,1.37.45A10,10,0,0,0,6.37,23H17.51A10,10,0,0,0,19,22.86a4.85,4.85,0,0,0,1.38-.45,4.69,4.69,0,0,0,2-2A4.85,4.85,0,0,0,22.8,19a10,10,0,0,0,.13-1.44c0-.22,0-.44,0-.67V7.09ZM19.5,18.93c-1-1.92-2.81-1.44-3.74-1l-.26.15h0a8.29,8.29,0,0,1-7.16,0,11.4,11.4,0,0,1-5.17-4.44,11,11,0,0,0,1.92,1.15,8,8,0,0,0,7.51,0A41.6,41.6,0,0,1,5.65,7.59a9.55,9.55,0,0,1-.92-1.27,51.85,51.85,0,0,0,6.75,5.11,48.34,48.34,0,0,1-4.75-6,47.79,47.79,0,0,0,7.82,6.42,3.78,3.78,0,0,1,.33.19,6.26,6.26,0,0,0,.21-.61,8.79,8.79,0,0,0-1.74-7.33c3.77,2.27,6,6.57,5.09,10.21,0,.08-.05.16-.07.25,1.89,2.32,1.37,4.82,1.13,4.35Z"/></svg>