<svg id="Layer_1" data-name="Layer 1" xmlns="http://www.w3.org/2000/svg" width="24" height="24" viewBox="0 0 24 24"><defs><style>.cls-1{fill:#080736;}</style></defs><path class="cls-1" d="M1.1,1.1V22.9H22.9V1.1ZM13,18.1A2.78,2.78,0,0,1,9.9,21.19a3.19,3.19,0,0,1-3.07-1.87l1.67-1c.32.57.61,1.05,1.32,1.05s1.1-.26,1.1-1.29v-7h2v7Zm4.85,3.09a3.94,3.94,0,0,1-3.73-2.09l1.67-1a2.22,2.22,0,0,0,2,1.25c.85,0,1.4-.42,1.4-1s-.56-.95-1.5-1.36l-.51-.22c-1.48-.63-2.46-1.42-2.46-3.09a2.74,2.74,0,0,1,3-2.71,3,3,0,0,1,2.91,1.64l-1.6,1a1.4,1.4,0,0,0-1.31-.87.89.89,0,0,0-1,.87c0,.62.38.86,1.26,1.25l.51.22c1.74.74,2.72,1.51,2.72,3.22s-1.45,2.85-3.39,2.85Z"/></svg>