<?xml version="1.0" encoding="UTF-8"?>
<svg width="24px" height="24px" viewBox="0 0 24 24" version="1.1" xmlns="http://www.w3.org/2000/svg" xmlns:xlink="http://www.w3.org/1999/xlink">
    <!-- Generator: Sketch 46.1 (44463) - http://www.bohemiancoding.com/sketch -->
    <title>settings</title>
    <desc>Created with Sketch.</desc>
    <defs></defs>
    <g id="Page-1" stroke="none" stroke-width="1" fill="none" fill-rule="evenodd" stroke-linecap="round" stroke-linejoin="round">
        <g id="settings" stroke="#000000">
            <path d="M19.8951304,13.4347826 L23,13.4347826 L23,10.5652174 L19.8941739,10.5652174 C19.6942609,9.73591304 19.3671304,8.47904348 18.9347826,7.77026087 L21.1309565,5.57408696 L18.4249565,2.86904348 L16.2278261,5.06521739 C15.52,4.63286957 14.264087,4.30573913 13.4347826,4.10678261 L13.4347826,1 L10.5652174,1 L10.5652174,4.10678261 C9.73591304,4.30573913 8.47904348,4.63286957 7.77121739,5.06521739 L5.57408696,2.86904348 L2.86808696,5.57408696 L5.06521739,7.77121739 C4.63286957,8.47904348 4.30573913,9.73591304 4.10486957,10.5652174 L1,10.5652174 L1,13.4347826 L4.10486957,13.4347826 C4.30573913,14.264087 4.63286957,15.521913 5.06521739,16.2287826 L2.86808696,18.425913 L5.57408696,21.1309565 L7.77026087,18.9328696 C8.47904348,19.3671304 9.73591304,19.6942609 10.5652174,19.8951304 L10.5652174,23 L13.4347826,23 L13.4347826,19.8951304 C14.264087,19.6942609 15.5209565,19.3671304 16.2278261,18.9347826 L18.425913,21.1309565 L21.1309565,18.425913 L18.9347826,16.2287826 C19.3671304,15.521913 19.6942609,14.264087 19.8951304,13.4347826 Z" id="Stroke-142"></path>
            <path d="M16.0001,12 C16.0001,14.2088889 14.2089889,16 12.0001,16 C9.79121111,16 8.0001,14.2088889 8.0001,12 C8.0001,9.79111111 9.79121111,8 12.0001,8 C14.2089889,8 16.0001,9.79111111 16.0001,12 Z" id="Stroke-143"></path>
        </g>
    </g>
</svg>