<?xml version="1.0" encoding="UTF-8"?>
<svg width="24px" height="24px" viewBox="0 0 24 24" version="1.1" xmlns="http://www.w3.org/2000/svg" xmlns:xlink="http://www.w3.org/1999/xlink">
    <!-- Generator: Sketch 46.2 (44496) - http://www.bohemiancoding.com/sketch -->
    <title>tablet</title>
    <desc>Created with Sketch.</desc>
    <defs></defs>
    <g id="Page-1" stroke="none" stroke-width="1" fill="none" fill-rule="evenodd">
        <g id="tablet" stroke="#000000">
            <path d="M21.5,21.7685422 C21.5,22.8866598 20.5523529,23.7941176 19.3823529,23.7941176 L5.61764706,23.7941176 C4.44870588,23.7941176 3.5,22.8866598 3.5,21.7685422 L3.5,2.52557545 C3.5,1.4074578 4.44870588,0.5 5.61764706,0.5 L19.3823529,0.5 C20.5523529,0.5 21.5,1.4074578 21.5,2.52557545 L21.5,21.7685422 Z" id="Stroke-254" stroke-linecap="round" stroke-linejoin="round"></path>
            <polygon id="Stroke-255" stroke-linecap="round" stroke-linejoin="round" points="5.5 19.5 19.5 19.5 19.5 3.5 5.5 3.5"></polygon>
            <path d="M12.5,1.75 C12.362,1.75 12.25,1.862 12.25,2 C12.25,2.138 12.362,2.25 12.5,2.25 C12.638,2.25 12.75,2.138 12.75,2 C12.75,1.862 12.638,1.75 12.5,1.75" id="Fill-256" stroke-width="0.5"></path>
            <polygon id="Stroke-257" stroke-linecap="round" stroke-linejoin="round" points="8.5 7.5 9.5 7.5 9.5 6.5 8.5 6.5"></polygon>
            <polygon id="Stroke-258" stroke-linecap="round" stroke-linejoin="round" points="11.5 7.5 12.5 7.5 12.5 6.5 11.5 6.5"></polygon>
            <polygon id="Stroke-259" stroke-linecap="round" stroke-linejoin="round" points="14.5 7.5 15.5 7.5 15.5 6.5 14.5 6.5"></polygon>
            <polygon id="Stroke-260" stroke-linecap="round" stroke-linejoin="round" points="8.5 10.5 9.5 10.5 9.5 9.5 8.5 9.5"></polygon>
            <polygon id="Stroke-261" stroke-linecap="round" stroke-linejoin="round" points="11.5 10.5 12.5 10.5 12.5 9.5 11.5 9.5"></polygon>
            <polygon id="Stroke-262" stroke-linecap="round" stroke-linejoin="round" points="14.5 10.5 15.5 10.5 15.5 9.5 14.5 9.5"></polygon>
            <polygon id="Stroke-263" stroke-linecap="round" stroke-linejoin="round" points="8.5 13.5 9.5 13.5 9.5 12.5 8.5 12.5"></polygon>
            <polygon id="Stroke-264" stroke-linecap="round" stroke-linejoin="round" points="11.5 13.5 12.5 13.5 12.5 12.5 11.5 12.5"></polygon>
            <path d="M12.8999996,21.5249996 C12.8999996,21.7319996 12.7319996,21.8999996 12.5249996,21.8999996 C12.3179996,21.8999996 12.1499996,21.7319996 12.1499996,21.5249996 C12.1499996,21.3179996 12.3179996,21.1499996 12.5249996,21.1499996 C12.7319996,21.1499996 12.8999996,21.3179996 12.8999996,21.5249996 Z" id="Stroke-265" stroke-width="0.75" stroke-linejoin="round"></path>
        </g>
    </g>
</svg>