<?xml version="1.0" encoding="UTF-8"?>
<svg width="24px" height="24px" viewBox="0 0 24 24" version="1.1" xmlns="http://www.w3.org/2000/svg" xmlns:xlink="http://www.w3.org/1999/xlink">
    <!-- Generator: Sketch 46.1 (44463) - http://www.bohemiancoding.com/sketch -->
    <title>toolbar size tablet</title>
    <desc>Created with Sketch.</desc>
    <defs></defs>
    <g id="Page-1" stroke="none" stroke-width="1" fill="none" fill-rule="evenodd">
        <g id="toolbar-size-tablet">
            <path d="M12.0002,3.7002 C11.8002,3.7002 11.6002,3.9002 11.6002,4.1002 C11.6002,4.3002 11.8002,4.5002 12.0002,4.5002 C12.2002,4.5002 12.4002,4.3002 12.4002,4.1002 C12.4002,3.9002 12.2002,3.7002 12.0002,3.7002" id="Fill-301" fill="#000000"></path>
            <path d="M9.8,9.3999 L8.901,9.3999 C8.6,9.3999 8.401,9.1999 8.401,8.8999 L8.401,7.9999 C8.401,7.6999 8.6,7.4999 8.901,7.4999 L9.8,7.4999 C10.1,7.4999 10.3,7.6999 10.3,7.9999 L10.3,8.8999 C10.3,9.1999 10.1,9.3999 9.8,9.3999" id="Fill-302" fill="#000000"></path>
            <path d="M12.4006,9.3999 L11.5006,9.3999 C11.2006,9.3999 11.0006,9.1999 11.0006,8.8999 L11.0006,7.9999 C11.0006,7.6999 11.2006,7.4999 11.5006,7.4999 L12.4006,7.4999 C12.7006,7.4999 12.9006,7.6999 12.9006,7.9999 L12.9006,8.8999 C12.9006,9.1999 12.7006,9.3999 12.4006,9.3999" id="Fill-303" fill="#000000"></path>
            <path d="M15.0002,9.3999 L14.1002,9.3999 C13.8002,9.3999 13.6002,9.1999 13.6002,8.8999 L13.6002,7.9999 C13.6002,7.6999 13.8002,7.4999 14.1002,7.4999 L15.0002,7.4999 C15.3002,7.4999 15.5002,7.6999 15.5002,7.9999 L15.5002,8.8999 C15.5002,9.1999 15.3002,9.3999 15.0002,9.3999" id="Fill-304" fill="#000000"></path>
            <path d="M9.8,12 L8.901,12 C8.6,12 8.401,11.8 8.401,11.5 L8.401,10.6 C8.401,10.3 8.6,10.1 8.901,10.1 L9.8,10.1 C10.1,10.1 10.3,10.3 10.3,10.6 L10.3,11.5 C10.3,11.8 10.1,12 9.8,12" id="Fill-305" fill="#000000"></path>
            <path d="M12.4006,12 L11.5006,12 C11.2006,12 11.0006,11.8 11.0006,11.5 L11.0006,10.6 C11.0006,10.3 11.2006,10.1 11.5006,10.1 L12.4006,10.1 C12.7006,10.1 12.9006,10.3 12.9006,10.6 L12.9006,11.5 C12.9006,11.8 12.7006,12 12.4006,12" id="Fill-306" fill="#000000"></path>
            <path d="M15.0002,12 L14.1002,12 C13.8002,12 13.6002,11.8 13.6002,11.5 L13.6002,10.6 C13.6002,10.3 13.8002,10.1 14.1002,10.1 L15.0002,10.1 C15.3002,10.1 15.5002,10.3 15.5002,10.6 L15.5002,11.5 C15.5002,11.8 15.3002,12 15.0002,12" id="Fill-307" fill="#000000"></path>
            <path d="M9.8,14.6001 L8.901,14.6001 C8.6,14.6001 8.401,14.4001 8.401,14.1001 L8.401,13.2001 C8.401,12.9001 8.6,12.7001 8.901,12.7001 L9.8,12.7001 C10.1,12.7001 10.3,12.9001 10.3,13.2001 L10.3,14.1001 C10.3,14.4001 10.1,14.6001 9.8,14.6001" id="Fill-308" fill="#000000"></path>
            <path d="M12.4006,14.6001 L11.5006,14.6001 C11.2006,14.6001 11.0006,14.4001 11.0006,14.1001 L11.0006,13.2001 C11.0006,12.9001 11.2006,12.7001 11.5006,12.7001 L12.4006,12.7001 C12.7006,12.7001 12.9006,12.9001 12.9006,13.2001 L12.9006,14.1001 C12.9006,14.4001 12.7006,14.6001 12.4006,14.6001" id="Fill-309" fill="#000000"></path>
            <path d="M12.4006,21 C12.4006,21.2 12.2006,21.4 12.0006,21.4 C11.7996,21.4 11.5996,21.2 11.5996,21 C11.5996,20.8 11.7996,20.6 12.0006,20.6 C12.2006,20.6 12.4006,20.8 12.4006,21" id="Fill-310" stroke="#000000"></path>
            <path d="M11.9006,21 C11.9006,21.0761424 11.9244576,21.1 12.0006,21.1 C12.0757228,21.1 12.0996,21.0761625 12.0996,21 C12.0996,20.9238375 12.0757228,20.9 12.0006,20.9 C11.9244576,20.9 11.9006,20.9238576 11.9006,21 Z" id="Stroke-311" stroke="#010101"></path>
            <rect id="Rectangle-6" stroke="#000000" x="4.5" y="2.5" width="15" height="20" rx="2.5"></rect>
            <rect id="Rectangle" stroke="#000000" x="6.5" y="5.5" width="11" height="14" rx="0.5"></rect>
        </g>
    </g>
</svg>