<?xml version="1.0" encoding="UTF-8"?>
<svg width="24px" height="24px" viewBox="0 0 24 24" version="1.1" xmlns="http://www.w3.org/2000/svg" xmlns:xlink="http://www.w3.org/1999/xlink">
    <!-- Generator: Sketch 46.1 (44463) - http://www.bohemiancoding.com/sketch -->
    <title>toolbar size tablet</title>
    <desc>Created with Sketch.</desc>
    <defs></defs>
    <g id="Page-1" stroke="none" stroke-width="1" fill="none" fill-rule="evenodd">
        <g id="toolbar-size-tablet">
            <path d="M12.0002,3.7002 C11.8002,3.7002 11.6002,3.9002 11.6002,4.1002 C11.6002,4.3002 11.8002,4.5002 12.0002,4.5002 C12.2002,4.5002 12.4002,4.3002 12.4002,4.1002 C12.4002,3.9002 12.2002,3.7002 12.0002,3.7002" id="Fill-301" fill="#000000"></path>
            <path d="M9.50605529,9.00068989 L8.79594471,9.00068989 C8.55818799,9.00068989 8.401,8.84271201 8.401,8.60574518 L8.401,7.89484471 C8.401,7.65787788 8.55818799,7.4999 8.79594471,7.4999 L9.50605529,7.4999 C9.74302212,7.4999 9.901,7.65787788 9.901,7.89484471 L9.901,8.60574518 C9.901,8.84271201 9.74302212,9.00068989 9.50605529,9.00068989" id="Fill-302" fill="#000000"></path>
            <path d="M12.1058632,8.9999 L11.3953368,8.9999 C11.1584947,8.9999 11.0006,8.84200526 11.0006,8.60516316 L11.0006,7.89463684 C11.0006,7.65779474 11.1584947,7.4999 11.3953368,7.4999 L12.1058632,7.4999 C12.3427053,7.4999 12.5006,7.65779474 12.5006,7.89463684 L12.5006,8.60516316 C12.5006,8.84200526 12.3427053,8.9999 12.1058632,8.9999" id="Fill-303" fill="#000000"></path>
            <path d="M14.7054632,8.9999 L13.9949368,8.9999 C13.7580947,8.9999 13.6002,8.84200526 13.6002,8.60516316 L13.6002,7.89463684 C13.6002,7.65779474 13.7580947,7.4999 13.9949368,7.4999 L14.7054632,7.4999 C14.9423053,7.4999 15.1002,7.65779474 15.1002,7.89463684 L15.1002,8.60516316 C15.1002,8.84200526 14.9423053,8.9999 14.7054632,8.9999" id="Fill-304" fill="#000000"></path>
            <path d="M9.50605529,11.6007899 L8.79594471,11.6007899 C8.55818799,11.6007899 8.401,11.442812 8.401,11.2058452 L8.401,10.4949447 C8.401,10.2579779 8.55818799,10.1 8.79594471,10.1 L9.50605529,10.1 C9.74302212,10.1 9.901,10.2579779 9.901,10.4949447 L9.901,11.2058452 C9.901,11.442812 9.74302212,11.6007899 9.50605529,11.6007899" id="Fill-305" fill="#000000"></path>
            <path d="M12.1058632,11.6 L11.3953368,11.6 C11.1584947,11.6 11.0006,11.4421053 11.0006,11.2052632 L11.0006,10.4947368 C11.0006,10.2578947 11.1584947,10.1 11.3953368,10.1 L12.1058632,10.1 C12.3427053,10.1 12.5006,10.2578947 12.5006,10.4947368 L12.5006,11.2052632 C12.5006,11.4421053 12.3427053,11.6 12.1058632,11.6" id="Fill-306" fill="#000000"></path>
            <path d="M14.7054632,11.6 L13.9949368,11.6 C13.7580947,11.6 13.6002,11.4421053 13.6002,11.2052632 L13.6002,10.4947368 C13.6002,10.2578947 13.7580947,10.1 13.9949368,10.1 L14.7054632,10.1 C14.9423053,10.1 15.1002,10.2578947 15.1002,10.4947368 L15.1002,11.2052632 C15.1002,11.4421053 14.9423053,11.6 14.7054632,11.6" id="Fill-307" fill="#000000"></path>
            <path d="M9.50605529,14.2008899 L8.79594471,14.2008899 C8.55818799,14.2008899 8.401,14.042912 8.401,13.8059452 L8.401,13.0950447 C8.401,12.8580779 8.55818799,12.7001 8.79594471,12.7001 L9.50605529,12.7001 C9.74302212,12.7001 9.901,12.8580779 9.901,13.0950447 L9.901,13.8059452 C9.901,14.042912 9.74302212,14.2008899 9.50605529,14.2008899" id="Fill-308" fill="#000000"></path>
            <path d="M12.1058632,14.2001 L11.3953368,14.2001 C11.1584947,14.2001 11.0006,14.0422053 11.0006,13.8053632 L11.0006,13.0948368 C11.0006,12.8579947 11.1584947,12.7001 11.3953368,12.7001 L12.1058632,12.7001 C12.3427053,12.7001 12.5006,12.8579947 12.5006,13.0948368 L12.5006,13.8053632 C12.5006,14.0422053 12.3427053,14.2001 12.1058632,14.2001" id="Fill-309" fill="#000000"></path>
            <path d="M12.4006,21 C12.4006,21.2 12.2006,21.4 12.0006,21.4 C11.7996,21.4 11.5996,21.2 11.5996,21 C11.5996,20.8 11.7996,20.6 12.0006,20.6 C12.2006,20.6 12.4006,20.8 12.4006,21" id="Fill-310" stroke="#000000"></path>
            <path d="M11.9006,21 C11.9006,21.0761424 11.9244576,21.1 12.0006,21.1 C12.0757228,21.1 12.0996,21.0761625 12.0996,21 C12.0996,20.9238375 12.0757228,20.9 12.0006,20.9 C11.9244576,20.9 11.9006,20.9238576 11.9006,21 Z" id="Stroke-311" stroke="#010101"></path>
            <rect id="Rectangle-6" stroke="#000000" x="4.5" y="2.5" width="15" height="20" rx="2.5"></rect>
            <rect id="Rectangle" stroke="#000000" x="6.5" y="5.5" width="11" height="14"></rect>
        </g>
    </g>
</svg>