<?xml version="1.0" encoding="UTF-8"?>
<svg width="24px" height="24px" viewBox="0 0 24 24" version="1.1" xmlns="http://www.w3.org/2000/svg" xmlns:xlink="http://www.w3.org/1999/xlink">
    <!-- Generator: Sketch 46.1 (44463) - http://www.bohemiancoding.com/sketch -->
    <title>toolbar size tablet</title>
    <desc>Created with Sketch.</desc>
    <defs></defs>
    <g id="Page-1" stroke="none" stroke-width="1" fill="none" fill-rule="evenodd">
        <g id="toolbar-size-tablet">
            <path d="M12.0199997,3.81999993 C11.9199997,3.81999993 11.8199997,3.91999993 11.8199997,4.01999993 C11.8199997,4.11999993 11.9199997,4.21999993 12.0199997,4.21999993 C12.1199997,4.21999993 12.2199997,4.11999993 12.2199997,4.01999993 C12.2199997,3.91999993 12.1199997,3.81999993 12.0199997,3.81999993" id="Fill-301" fill="#000000"></path>
            <path d="M12.1505,20.95 C12.1505,21.05 12.0505,21.15 11.9505,21.15 C11.85,21.15 11.75,21.05 11.75,20.95 C11.75,20.85 11.85,20.75 11.9505,20.75 C12.0505,20.75 12.1505,20.85 12.1505,20.95" id="Fill-310" stroke="#000000" stroke-width="0.5"></path>
            <path d="M11.9006,21 C11.9006,21.0761424 11.9244576,21.1 12.0006,21.1 C12.0757228,21.1 12.0996,21.0761625 12.0996,21 C12.0996,20.9238375 12.0757228,20.9 12.0006,20.9 C11.9244576,20.9 11.9006,20.9238576 11.9006,21 Z" id="Stroke-311" stroke="#010101"></path>
            <rect id="Rectangle-6" stroke="#000000" x="4.5" y="2.5" width="15" height="20" rx="2.5"></rect>
            <rect id="Rectangle" stroke="#000000" x="6.5" y="5.5" width="11" height="14"></rect>
            <rect id="Rectangle-7" stroke="#000000" x="8.75" y="7.75" width="1" height="1"></rect>
            <rect id="Rectangle-7" stroke="#000000" x="11.75" y="7.75" width="1" height="1"></rect>
            <rect id="Rectangle-7" stroke="#000000" x="14.75" y="7.75" width="1" height="1"></rect>
            <rect id="Rectangle-7" stroke="#000000" x="8.75" y="10.75" width="1" height="1"></rect>
            <rect id="Rectangle-7" stroke="#000000" x="11.75" y="10.75" width="1" height="1"></rect>
            <rect id="Rectangle-7" stroke="#000000" x="14.75" y="10.75" width="1" height="1"></rect>
            <rect id="Rectangle-7" stroke="#000000" x="8.75" y="13.75" width="1" height="1"></rect>
            <rect id="Rectangle-7" stroke="#000000" x="11.75" y="13.75" width="1" height="1"></rect>
        </g>
    </g>
</svg>