<?xml version="1.0" encoding="UTF-8"?>
<svg width="24px" height="24px" viewBox="0 0 24 24" version="1.1" xmlns="http://www.w3.org/2000/svg" xmlns:xlink="http://www.w3.org/1999/xlink">
    <!-- Generator: Sketch 46.1 (44463) - http://www.bohemiancoding.com/sketch -->
    <title>toolbar new window close</title>
    <desc>Created with Sketch.</desc>
    <defs></defs>
    <g id="Page-1" stroke="none" stroke-width="1" fill="none" fill-rule="evenodd">
        <g id="toolbar-new-window-close" stroke="#000000">
            <path d="M19.5234375,8.74764727 L19.5622785,5.07816812 L19.5622785,5.07816812 C19.5652013,4.80204121 19.3437256,4.57582675 19.0675986,4.57290398 C19.0658347,4.57288531 19.0640706,4.57287598 19.0623065,4.57287598 L2.06738281,4.57287598 L2.06738281,4.57287598 C1.79124044,4.57287598 1.56738281,4.7967336 1.56738281,5.07287598 L1.56738281,19.0771484 L1.56738281,19.0771484 C1.56738281,19.3532908 1.79124044,19.5771484 2.06738281,19.5771484 L15.9315186,19.5771484" id="Path-7" stroke-linecap="round" stroke-linejoin="round"></path>
            <path d="M2.5,7.5 L19.5,7.5" id="Line" stroke-linecap="square"></path>
            <path d="M11.1268311,11.3996603 L9.50175983,9.5003499 L9.50175983,9.5003499 C9.50140078,9.49993026 9.50076952,9.49988114 9.50034988,9.50024019 C9.50012783,9.50043017 9.5,9.50070778 9.5,9.50100002 L9.5,17.5060821 L9.5,17.5060821 C9.5,17.5066344 9.50044772,17.5070821 9.501,17.5070821 L16.7398556,17.5070821 L16.7398556,17.5070821 C16.7404079,17.5070821 16.7408556,17.5066344 16.7408556,17.5060821 C16.7408556,17.505813 16.7407471,17.5055551 16.7405546,17.505367 L14.2717285,15.0925314 C19.1322428,12.7615581 21.9117839,13.5019959 22.6103516,17.3138448 C22.424235,11.786908 18.9105225,9.72595422 12.0692139,11.1309835 L11.1268311,11.3996603 Z" id="Path-8" stroke-linejoin="round"></path>
        </g>
    </g>
</svg>