<?xml version="1.0" encoding="UTF-8"?>
<svg width="24px" height="24px" viewBox="0 0 24 24" version="1.1" xmlns="http://www.w3.org/2000/svg" xmlns:xlink="http://www.w3.org/1999/xlink">
    <!-- Generator: Sketch 46.2 (44496) - http://www.bohemiancoding.com/sketch -->
    <title>toolbar interactive mode</title>
    <desc>Created with Sketch.</desc>
    <defs></defs>
    <g id="Page-1" stroke="none" stroke-width="1" fill="none" fill-rule="evenodd">
        <g id="toolbar-interactive-mode" stroke="#000000">
            <path d="M10.5,17.5 L10.5,8 C10.5,7.66666667 10.6666667,7.33333333 11,7 C11.4992956,6.50070441 12.5004584,6.50045841 13,7 C13.3333333,7.33333333 13.5,7.66666667 13.5,8 L13.5,13 C16.0809178,13.8314009 17.5809178,14.4147342 18,14.75 C18.6286233,15.2528986 18.5,16 18.5,17 C18.5,18 17.5,22.5 17.5,22.5 C17.5,22.5 11.1666667,22.5 10,22.5 C7.79735439,19.1468246 6.63068772,16.9801579 6.5,16 C6.30396841,14.5297631 7.5,14 8.5,15 C9.16666667,15.6666667 9.83333333,16.5 10.5,17.5 Z" id="Path-10" stroke-linejoin="round"></path>
            <path d="M8,11.5 L6,11.5 L6,11.5 C4.61928813,11.5 3.5,10.3807119 3.5,9 L3.5,4 L3.5,4 C3.5,2.61928813 4.61928813,1.5 6,1.5 L18,1.5 L18,1.5 C19.3807119,1.5 20.5,2.61928813 20.5,4 L20.5,9.25 L20.5,9.25 C20.5,10.4926407 19.4926407,11.5 18.25,11.5 L16,11.5" id="Path-11"></path>
        </g>
    </g>
</svg>