<?xml version="1.0" encoding="UTF-8"?>
<svg width="24px" height="24px" viewBox="0 0 24 24" version="1.1" xmlns="http://www.w3.org/2000/svg" xmlns:xlink="http://www.w3.org/1999/xlink">
    <!-- Generator: Sketch 46.1 (44463) - http://www.bohemiancoding.com/sketch -->
    <title>toolbar interactive mode</title>
    <desc>Created with Sketch.</desc>
    <defs></defs>
    <g id="Page-1" stroke="none" stroke-width="1" fill="none" fill-rule="evenodd">
        <g id="toolbar-interactive-mode">
            <path d="M10.5002,22 L17.0002,22 L17.9002,17.1 C18.1002,16.3 17.9002,15.2 17.4002,15 L13.5002,13.7 C13.3002,13.6 13.2002,13.4 13.2002,13.2 L13.2002,7.8 C13.2002,7.4 12.7002,7 12.2002,7 C11.7002,7 11.2002,7.4 11.2002,7.8 L11.2002,17.6 C11.2002,17.8 11.1002,18 10.9002,18.1 C10.7002,18.2 10.5002,18.1 10.3002,17.9 C8.3002,15.2 7.9002,15.2 7.2002,15.2 C7.1002,15.2 7.1002,15.2 7.1002,15.3 C7.0002,15.5 7.0002,16.1 7.3002,16.5 L10.5002,22 Z M17.4002,23 L10.3002,23 C10.1002,23 10.0002,22.9 9.9002,22.8 L6.3002,16.9 C5.9002,16.4 5.8002,15.4 6.1002,14.7 C6.3002,14.3 6.7002,14.1 7.1002,14.1 C8.0002,14.1 8.7002,14.3 10.1002,16 L10.1002,7.8 C10.1002,6.7 11.2002,6 12.1002,6 C13.2002,6 14.1002,6.9 14.1002,7.8 L14.1002,12.8 L17.7002,14 C18.9002,14.4 19.1002,16.2 18.9002,17.2 L18.0002,22.5 C17.8002,22.8 17.6002,23 17.4002,23 L17.4002,23 Z" id="Fill-275" fill="#000000"></path>
            <path d="M6,11.5 L18,11.5 C19.3807119,11.5 20.5,10.3807119 20.5,9 L20.5,4 C20.5,2.61928813 19.3807119,1.5 18,1.5 L6,1.5 C4.61928813,1.5 3.5,2.61928813 3.5,4 L3.5,9 C3.5,10.3807119 4.61928813,11.5 6,11.5 Z" id="Rectangle" stroke="#000000"></path>
            <path d="M6.5,11.5 L7.5,11.5" id="Line" stroke="#000000" stroke-linecap="square"></path>
            <path d="M16.5,11.5 L17.5,11.5" id="Line" stroke="#000000" stroke-linecap="square"></path>
        </g>
    </g>
</svg>