<?xml version="1.0" encoding="UTF-8"?>
<svg width="24px" height="24px" viewBox="0 0 24 24" version="1.1" xmlns="http://www.w3.org/2000/svg" xmlns:xlink="http://www.w3.org/1999/xlink">
    <!-- Generator: Sketch 46.2 (44496) - http://www.bohemiancoding.com/sketch -->
    <title>toolbar new window</title>
    <desc>Created with Sketch.</desc>
    <defs></defs>
    <g id="Page-1" stroke="none" stroke-width="1" fill="none" fill-rule="evenodd">
        <g id="toolbar-new-window" stroke="#000000">
            <path d="M19.5234375,8.74764727 L19.5622785,5.07816812 L19.5622785,5.07816812 C19.5652013,4.80204121 19.3437256,4.57582675 19.0675986,4.57290398 C19.0658347,4.57288531 19.0640706,4.57287598 19.0623065,4.57287598 L2.06738281,4.57287598 L2.06738281,4.57287598 C1.79124044,4.57287598 1.56738281,4.7967336 1.56738281,5.07287598 L1.56738281,19.0771484 L1.56738281,19.0771484 C1.56738281,19.3532908 1.79124044,19.5771484 2.06738281,19.5771484 L15.9315186,19.5771484" id="Path-7" stroke-linecap="round" stroke-linejoin="round"></path>
            <path d="M2.5,7.5 L19.5,7.5" id="Line" stroke-linecap="square"></path>
            <path d="M20.9835205,11.3996603 L22.6085917,9.5003499 C22.6089508,9.49993026 22.609582,9.49988114 22.6100017,9.50024019 C22.6102237,9.50043017 22.6103516,9.50070778 22.6103516,9.50100002 L22.6103516,17.5060821 C22.6103516,17.5066344 22.6099038,17.5070821 22.6093516,17.5070821 L15.3704959,17.5070821 C15.3699436,17.5070821 15.3694959,17.5066344 15.3694959,17.5060821 L15.369797,17.505367 L17.838623,15.0925314 C12.9781087,12.7615581 10.1985677,13.5019959 9.5,17.3138448 C9.68611654,11.786908 13.1998291,9.72595422 20.0411377,11.1309835 L20.9835205,11.3996603 Z" id="Path-8" stroke-linejoin="round"></path>
        </g>
    </g>
</svg>