<?xml version="1.0" encoding="UTF-8"?>
<svg width="24px" height="24px" viewBox="0 0 24 24" version="1.1" xmlns="http://www.w3.org/2000/svg" xmlns:xlink="http://www.w3.org/1999/xlink">
    <!-- Generator: Sketch 46.2 (44496) - http://www.bohemiancoding.com/sketch -->
    <title>toolbar size mobile</title>
    <desc>Created with Sketch.</desc>
    <defs></defs>
    <g id="Page-1" stroke="none" stroke-width="1" fill="none" fill-rule="evenodd" stroke-linejoin="round">
        <g id="toolbar-size-mobile" stroke="#000000">
            <path d="M6.5,4.23913043 C6.5,3.27913043 7.32615385,2.5 8.34615385,2.5 L16.6538462,2.5 C17.6738462,2.5 18.5,3.27913043 18.5,4.23913043 L18.5,20.7608696 C18.5,21.7217391 17.6738462,22.5 16.6538462,22.5 L8.34615385,22.5 C7.32615385,22.5 6.5,21.7217391 6.5,20.7608696 L6.5,4.23913043 L6.5,4.23913043 Z" id="Stroke-309" stroke-linecap="round"></path>
            <path d="M6.5,6.5 L18.5,6.5" id="Stroke-310" stroke-linecap="round"></path>
            <path d="M6.5,19.5 L18.5,19.5" id="Stroke-311" stroke-linecap="round"></path>
            <path d="M12.5,20.75 C12.638,20.75 12.75,20.862 12.75,21 C12.75,21.138 12.638,21.25 12.5,21.25 C12.362,21.25 12.25,21.138 12.25,21 C12.25,20.862 12.362,20.75 12.5,20.75 L12.5,20.75 Z" id="Stroke-313" stroke-width="0.5"></path>
            <path d="M14.7857143,4.5 L10.5,4.5" id="Stroke-312" stroke-linecap="round"></path>
        </g>
    </g>
</svg>