<?xml version="1.0" encoding="UTF-8"?>
<svg width="24px" height="24px" viewBox="0 0 24 24" version="1.1" xmlns="http://www.w3.org/2000/svg" xmlns:xlink="http://www.w3.org/1999/xlink">
    <!-- Generator: Sketch 46.2 (44496) - http://www.bohemiancoding.com/sketch -->
    <title>userlist</title>
    <desc>Created with Sketch.</desc>
    <defs></defs>
    <g id="Page-1" stroke="none" stroke-width="1" fill="none" fill-rule="evenodd" stroke-linecap="round" stroke-linejoin="round">
        <g id="userlist" stroke="#000000">
            <path d="M5.5,14.5 C5.5,14.5 5.17115984,15.914 4.69615984,16.404 C4.22115984,16.896 1.19615984,17.547 1.10715984,17.866 C1.01915984,18.187 0.908159837,19.625 1.12915984,19.717 L12.8751598,19.694 C13.0511598,19.512 13.0241598,18.026 12.8971598,17.844 C12.6901598,17.545 9.58715984,16.854 9.13715984,16.382 C8.68815984,15.91 8.5,15 8.5,14.5" id="Stroke-153"></path>
            <path d="M10.6072598,7.801 C10.6072598,5.371 8.94825984,3.5 6.91525984,3.5 C4.88125984,3.5 3.22325984,5.447 3.22325984,7.877 C3.22325984,9.72 3.40025984,11.072 3.62725984,11.618 C4.55025984,13.847 5.81925984,14.897 6.91525984,14.897 C8.01125984,14.897 9.25225984,13.801 10.2032598,11.608 C10.4382598,11.069 10.6072598,9.668 10.6072598,7.801 Z" id="Stroke-154"></path>
            <path d="M14.4998598,3.5 L22.4998598,3.5" id="Stroke-155"></path>
            <path d="M14.4998598,6.5 L22.4998598,6.5" id="Stroke-156"></path>
            <path d="M14.4998598,9.5 L22.4998598,9.5" id="Stroke-157"></path>
            <path d="M16.4998598,12.5 L22.4998598,12.5" id="Stroke-158"></path>
        </g>
    </g>
</svg>