<svg xmlns="http://www.w3.org/2000/svg" viewBox="0 0 16 16">
  <path d="M2,12.5H1.56A1,1,0,0,1,.5,11.56V1.92A1.42,1.42,0,0,1,1.83.5h11.4A1.36,1.36,0,0,1,14.5,1.88V4" />
  <line x1="1" y1="3.5" x2="14" y2="3.5" />
  <circle cx="9.5" cy="10.48" r="1.66" />
  <path d="M13.37,10.48a4,4,0,0,0-.11-.9L14.36,9,13.26,7l-1.15.64a2.38,2.38,0,0,0-1.6-.9V5.5h-2V6.77a2.38,2.38,0,0,0-1.61.9L5.76,7,4.64,9l1.1.64a3.74,3.74,0,0,0,0,1.79L4.63,12l1.11,1.92,1.16-.64a2.38,2.38,0,0,0,1.61.9V15.5h2V14.19a2.38,2.38,0,0,0,1.6-.9l1.13.64L14.35,12l-1.09-.64A3.89,3.89,0,0,0,13.37,10.48Z" /></svg>