<svg xmlns="http://www.w3.org/2000/svg" viewBox="0 0 24 24">
  <path d="M22,16.5H23.5v-2H22c-.14,0-.36-1.37-.65-1.85l1.5-1.47L21,9.34l-1.53,1.5a4.36,4.36,0,0,0-1.93-.65V8.5h-2v1.7c0,.14-1.37.36-1.85.65l-1.47-1.5L10.34,11.2l1.5,1.45c-.29.48-.51,1.85-.65,1.85H9.5v2h1.7a4.36,4.36,0,0,0,.65,1.94l-1.5,1.51L12.2,21.8l1.44-1.49c.48.3,1.85.52,1.85.66V22.5h2V21a4.36,4.36,0,0,0,1.93-.65l1.51,1.5L22.8,20l-1.49-1.53A4.36,4.36,0,0,0,22,16.5Z" />
  <circle cx="16.58" cy="15.58" r="2.93" />
  <path d="M5.64,19H2.5a2,2,0,0,1-2-2V3a2,2,0,0,1,2-2h19a2,2,0,0,1,2,2V8.63" />
  <line x1="0.5" y1="6" x2="23.5" y2="6" />
  <circle cx="4" cy="3.5" r="0.5" />
  <circle cx="7" cy="3.5" r="0.5" />
  <circle cx="10" cy="3.5" r="0.5" /></svg>