<svg xmlns="http://www.w3.org/2000/svg" viewBox="0 0 24 24">
  <path d="M8.5.5V11.66l-3,4.6-3,4.6A1.7,1.7,0,0,0,3.93,23.5H19.66a1.72,1.72,0,0,0,1.47-2.61l-2.82-4.77L15.5,11.38V.5l-1.77.78a3.49,3.49,0,0,1-3.49,0Z" />
  <polyline points="8.38 0.5 7.53 0.5 6.44 1.03" />
  <polyline points="15.44 0.5 16.28 0.5 17.38 1.03" />
  <circle cx="11.92" cy="8.9" r="1.56" transform="translate(-1.26 2) rotate(-9.13)" />
  <circle cx="14.48" cy="19.5" r="1.5" transform="translate(-2.91 2.55) rotate(-9.13)" />
  <circle cx="12.92" cy="15.04" r="0.98" transform="translate(-2.21 2.23) rotate(-9.09)" /></svg>