<svg class="oui-icon" data-name="orientation-landscape" xmlns="http://www.w3.org/2000/svg" xmlns:xlink="http://www.w3.org/1999/xlink" viewBox="0 0 16 16">
  <g class="oui-icon--secondary-color">
    <path d="M6.5,6.3V1.8c0-0.7,0.6-1.3,1.3-1.3l0,0h6.4c0.7,0,1.3,0.6,1.3,1.3V8" />
    <line x1="7" y1="3.5" x2="15" y2="3.5" />
    <circle cx="11" cy="2" r="0.1" />
  </g>
  <path d="M1.8,6.5h12.4c0.7,0,1.3,0.6,1.3,1.3v6.4c0,0.7-0.6,1.3-1.3,1.3H1.8c-0.7,0-1.3-0.6-1.3-1.3V7.8C0.5,7.1,1.1,6.5,1.8,6.5z" />
  <line x1="2.5" y1="15.5" x2="2.5" y2="6.5" />
  <line x1="11.5" y1="15.5" x2="11.5" y2="6.5" />
  <line x1="13.5" y1="10" x2="13.5" y2="12" />
</svg>