<svg class="oui-icon" data-name="events" xmlns="http://www.w3.org/2000/svg" viewBox="0 0 24 24">
  <polyline points="1 12.43 3.62 12.43 5.74 9.96 7.87 14.9 12.11 8.97 15.29 15.89 17.41 12.43 22.98 12.43" />
  <path d="M22.78,19.5H1.22a.72.72,0,0,1-.72-.73V1.23A.72.72,0,0,1,1.22.5H22.78a.72.72,0,0,1,.72.73V18.77A.72.72,0,0,1,22.78,19.5Z" />
  <line x1="1" y1="4.5" x2="23" y2="4.5" />
  <g>
    <path d="M2.22,2.08a.5.5,0,1,0,.5.5.5.5,0,0,0-.5-.5Z" />
  </g>
  <g>
    <path d="M4.22,2.08a.5.5,0,1,0,.5.5.5.5,0,0,0-.5-.5Z" />
  </g>
  <g>
    <path d="M6.28,2.06a.49.49,0,1,0,.49.49.49.49,0,0,0-.49-.49Z" />
  </g>
</svg>