<svg xmlns="http://www.w3.org/2000/svg" xmlns:xlink="http://www.w3.org/1999/xlink" viewBox="0 0 16 16">
  <g class="oui-icon--secondary-color">
    <path d="M8,15.5H1.8c-0.7,0-1.3-0.6-1.3-1.3V7.8l0,0c0-0.7,0.6-1.3,1.3-1.3h4.5" />
    <line x1="3.5" y1="15" x2="3.5" y2="7" />
    <circle cx="2" cy="11" r="0.1" />
  </g>
  <path d="M7.8,0.5h6.4c0.7,0,1.3,0.6,1.3,1.3v12.4c0,0.7-0.6,1.3-1.3,1.3H7.8c-0.7,0-1.3-0.6-1.3-1.3V1.8C6.5,1.1,7.1,0.5,7.8,0.5z" />
  <line x1="6.5" y1="2.5" x2="15.5" y2="2.5" />
  <line x1="6.5" y1="11.5" x2="15.5" y2="11.5" />
  <line x1="12" y1="13.5" x2="10" y2="13.5" />
</svg>